<?xml version="1.0" encoding="utf-8"?>
<!-- Generator: Adobe Illustrator 27.5.0, SVG Export Plug-In . SVG Version: 6.00 Build 0)  -->
<svg version="1.1" xmlns="http://www.w3.org/2000/svg" xmlns:xlink="http://www.w3.org/1999/xlink" x="0px" y="0px"
	 viewBox="0 0 500 500" style="enable-background:new 0 0 500 500;" xml:space="preserve">
<g id="Background_Complete">
	<g>
		<rect y="382.398" style="fill:#EBEBEB;" width="500" height="0.25"/>
		<rect x="435" y="398.494" style="fill:#EBEBEB;" width="14.901" height="0.25"/>
		<rect x="322.527" y="401.208" style="fill:#EBEBEB;" width="8.693" height="0.25"/>
		<rect x="396.586" y="389.208" style="fill:#EBEBEB;" width="34.192" height="0.25"/>
		<rect x="66.438" y="394.368" style="fill:#EBEBEB;" width="43.193" height="0.25"/>
		<rect x="118.534" y="394.368" style="fill:#EBEBEB;" width="15.577" height="0.25"/>
		<rect x="161.079" y="391.013" style="fill:#EBEBEB;" width="93.676" height="0.25"/>
		<path style="fill:#EBEBEB;" d="M237.014,337.8H43.915c-3.147,0-5.708-2.561-5.708-5.708V60.66c0-3.147,2.561-5.708,5.708-5.708
			h193.099c3.146,0,5.707,2.561,5.707,5.708v271.432C242.721,335.239,240.16,337.8,237.014,337.8z M43.915,55.203
			c-3.01,0-5.458,2.448-5.458,5.458v271.432c0,3.01,2.448,5.458,5.458,5.458h193.099c3.009,0,5.457-2.448,5.457-5.458V60.66
			c0-3.009-2.448-5.458-5.457-5.458H43.915z"/>
		<path style="fill:#EBEBEB;" d="M453.31,337.8H260.212c-3.147,0-5.707-2.561-5.707-5.708V60.66c0-3.147,2.561-5.708,5.707-5.708
			H453.31c3.148,0,5.708,2.561,5.708,5.708v271.432C459.019,335.239,456.458,337.8,453.31,337.8z M260.212,55.203
			c-3.009,0-5.457,2.448-5.457,5.458v271.432c0,3.01,2.448,5.458,5.457,5.458H453.31c3.01,0,5.458-2.448,5.458-5.458V60.66
			c0-3.009-2.448-5.458-5.458-5.458H260.212z"/>
	</g>
	<g>
		<rect x="74.57" y="116" style="fill:#E0E0E0;" width="94.667" height="266.398"/>
		
			<rect x="169.236" y="116" transform="matrix(-1 -1.224647e-16 1.224647e-16 -1 589.479 498.3984)" style="fill:#F5F5F5;" width="251.006" height="266.398"/>
		<rect x="64.57" y="149.333" style="fill:#EBEBEB;" width="114.667" height="6.667"/>
		
			<rect x="179.236" y="149.333" transform="matrix(-1 -1.224647e-16 1.224647e-16 -1 609.479 305.3333)" style="fill:#E0E0E0;" width="251.006" height="6.667"/>
		<rect x="64.57" y="189.333" style="fill:#EBEBEB;" width="114.667" height="6.667"/>
		
			<rect x="179.236" y="189.333" transform="matrix(-1 -1.224647e-16 1.224647e-16 -1 609.479 385.3333)" style="fill:#E0E0E0;" width="251.006" height="6.667"/>
		<rect x="64.57" y="229.333" style="fill:#EBEBEB;" width="114.667" height="6.667"/>
		
			<rect x="179.236" y="229.333" transform="matrix(-1 -1.224647e-16 1.224647e-16 -1 609.479 465.3333)" style="fill:#E0E0E0;" width="251.006" height="6.667"/>
		<rect x="64.57" y="269.333" style="fill:#EBEBEB;" width="114.667" height="6.667"/>
		
			<rect x="179.236" y="269.333" transform="matrix(-1 -1.224647e-16 1.224647e-16 -1 609.479 545.3333)" style="fill:#E0E0E0;" width="251.006" height="6.667"/>
		<rect x="64.57" y="309.333" style="fill:#EBEBEB;" width="114.667" height="6.667"/>
		
			<rect x="179.236" y="309.333" transform="matrix(-1 -1.224647e-16 1.224647e-16 -1 609.479 625.3333)" style="fill:#E0E0E0;" width="251.006" height="6.667"/>
		<rect x="64.57" y="349.333" style="fill:#EBEBEB;" width="114.667" height="6.667"/>
		
			<rect x="179.236" y="349.333" transform="matrix(-1 -1.224647e-16 1.224647e-16 -1 609.479 705.3333)" style="fill:#E0E0E0;" width="251.006" height="6.667"/>
		<g>
			<rect x="101.125" y="35" style="fill:#F5F5F5;" width="144" height="71"/>
			<rect x="167.014" y="106" style="fill:#E0E0E0;" width="12.222" height="10"/>
			<rect x="101.125" y="98.282" style="fill:#F0F0F0;" width="144" height="7.718"/>
			<rect x="101.125" y="35" style="fill:#F0F0F0;" width="144" height="7.718"/>
		</g>
		<g>
			<rect x="304.74" y="64.595" style="fill:#F5F5F5;" width="71.386" height="45.058"/>
			<rect x="336.554" y="109.654" style="fill:#E0E0E0;" width="7.757" height="6.346"/>
			<rect x="304.74" y="104.756" style="fill:#F0F0F0;" width="71.386" height="4.898"/>
			<rect x="304.74" y="64.595" style="fill:#F0F0F0;" width="71.386" height="4.898"/>
		</g>
		<g>
			<rect x="356.625" y="124.083" style="fill:#E6E6E6;" width="25.25" height="25.25"/>
			
				<rect x="381.875" y="124.083" transform="matrix(-1 -1.224647e-16 1.224647e-16 -1 788.1673 273.4166)" style="fill:#FFFFFF;" width="24.417" height="25.25"/>
			<rect x="326.625" y="124.083" style="fill:#E6E6E6;" width="25.25" height="25.25"/>
			
				<rect x="351.875" y="124.083" transform="matrix(-1 -1.224647e-16 1.224647e-16 -1 728.1673 273.4166)" style="fill:#FFFFFF;" width="24.417" height="25.25"/>
			<rect x="296.625" y="124.083" style="fill:#E6E6E6;" width="25.25" height="25.25"/>
			
				<rect x="321.875" y="124.083" transform="matrix(-1 -1.224647e-16 1.224647e-16 -1 668.1673 273.4166)" style="fill:#FFFFFF;" width="24.417" height="25.25"/>
			<rect x="266.625" y="124.083" style="fill:#E6E6E6;" width="25.25" height="25.25"/>
			
				<rect x="291.875" y="124.083" transform="matrix(-1 -1.224647e-16 1.224647e-16 -1 608.1673 273.4166)" style="fill:#FFFFFF;" width="24.417" height="25.25"/>
		</g>
		<g>
			
				<rect x="92.515" y="162.773" transform="matrix(-1 -1.224647e-16 1.224647e-16 -1 195.6076 352.1057)" style="fill:#F0F0F0;" width="10.577" height="26.561"/>
			<rect x="82.288" y="162.773" style="fill:#FFFFFF;" width="10.228" height="26.561"/>
			
				<rect x="105.082" y="162.773" transform="matrix(-1 -1.224647e-16 1.224647e-16 -1 220.7406 352.1057)" style="fill:#F0F0F0;" width="10.577" height="26.561"/>
			<rect x="94.854" y="162.773" style="fill:#FFFFFF;" width="10.228" height="26.561"/>
			
				<rect x="117.648" y="162.773" transform="matrix(-1 -1.224647e-16 1.224647e-16 -1 245.8736 352.1057)" style="fill:#F0F0F0;" width="10.577" height="26.561"/>
			<rect x="107.421" y="162.773" style="fill:#FFFFFF;" width="10.228" height="26.561"/>
			
				<rect x="130.215" y="162.773" transform="matrix(-1 -1.224647e-16 1.224647e-16 -1 271.0066 352.1057)" style="fill:#F0F0F0;" width="10.577" height="26.561"/>
			<rect x="119.987" y="162.773" style="fill:#FFFFFF;" width="10.228" height="26.561"/>
		</g>
		<g>
			
				<rect x="101.172" y="291.445" transform="matrix(-1 -1.224647e-16 1.224647e-16 -1 216.5828 600.7789)" style="fill:#F0F0F0;" width="14.239" height="17.889"/>
			<rect x="87.402" y="291.445" style="fill:#FFFFFF;" width="13.769" height="17.889"/>
			
				<rect x="118.09" y="291.445" transform="matrix(-1 -1.224647e-16 1.224647e-16 -1 250.419 600.7789)" style="fill:#F0F0F0;" width="14.239" height="17.889"/>
			<rect x="104.32" y="291.445" style="fill:#FFFFFF;" width="13.769" height="17.889"/>
			
				<rect x="135.008" y="291.445" transform="matrix(-1 -1.224647e-16 1.224647e-16 -1 284.2554 600.7789)" style="fill:#F0F0F0;" width="14.239" height="17.889"/>
			<rect x="121.239" y="291.445" style="fill:#FFFFFF;" width="13.769" height="17.889"/>
			
				<rect x="151.926" y="291.445" transform="matrix(-1 -1.224647e-16 1.224647e-16 -1 318.0916 600.7789)" style="fill:#F0F0F0;" width="14.239" height="17.889"/>
			<rect x="138.157" y="291.445" style="fill:#FFFFFF;" width="13.769" height="17.889"/>
		</g>
		<g>
			<rect x="372.599" y="204.083" style="fill:#E6E6E6;" width="13.994" height="25.25"/>
			
				<rect x="386.593" y="204.083" transform="matrix(-1 -1.224647e-16 1.224647e-16 -1 786.7181 433.4166)" style="fill:#FFFFFF;" width="13.533" height="25.25"/>
			<rect x="355.972" y="204.083" style="fill:#E6E6E6;" width="13.994" height="25.25"/>
			
				<rect x="369.966" y="204.083" transform="matrix(-1 -1.224647e-16 1.224647e-16 -1 753.4643 433.4166)" style="fill:#FFFFFF;" width="13.533" height="25.25"/>
			<rect x="339.345" y="204.083" style="fill:#E6E6E6;" width="13.994" height="25.25"/>
			
				<rect x="353.339" y="204.083" transform="matrix(-1 -1.224647e-16 1.224647e-16 -1 720.2105 433.4166)" style="fill:#FFFFFF;" width="13.533" height="25.25"/>
			<rect x="322.718" y="204.083" style="fill:#E6E6E6;" width="13.994" height="25.25"/>
			
				<rect x="336.712" y="204.083" transform="matrix(-1 -1.224647e-16 1.224647e-16 -1 686.9566 433.4166)" style="fill:#FFFFFF;" width="13.532" height="25.25"/>
		</g>
		<g>
			<rect x="286.339" y="204.083" style="fill:#E6E6E6;" width="13.994" height="25.25"/>
			
				<rect x="300.334" y="204.083" transform="matrix(-1 -1.224647e-16 1.224647e-16 -1 614.1999 433.4166)" style="fill:#FFFFFF;" width="13.533" height="25.25"/>
			<rect x="269.712" y="204.083" style="fill:#E6E6E6;" width="13.994" height="25.25"/>
			
				<rect x="283.707" y="204.083" transform="matrix(-1 -1.224647e-16 1.224647e-16 -1 580.9461 433.4166)" style="fill:#FFFFFF;" width="13.533" height="25.25"/>
			<rect x="253.086" y="204.083" style="fill:#E6E6E6;" width="13.994" height="25.25"/>
			
				<rect x="267.08" y="204.083" transform="matrix(-1 -1.224647e-16 1.224647e-16 -1 547.6923 433.4166)" style="fill:#FFFFFF;" width="13.533" height="25.25"/>
			<rect x="236.459" y="204.083" style="fill:#E6E6E6;" width="13.994" height="25.25"/>
			
				<rect x="250.453" y="204.083" transform="matrix(-1 -1.224647e-16 1.224647e-16 -1 514.4384 433.4166)" style="fill:#FFFFFF;" width="13.532" height="25.25"/>
		</g>
		<g>
			<rect x="329.686" y="291.445" style="fill:#E6E6E6;" width="34.098" height="17.83"/>
			
				<rect x="363.784" y="291.445" transform="matrix(-1 -1.224647e-16 1.224647e-16 -1 760.5401 600.7199)" style="fill:#FFFFFF;" width="32.972" height="17.83"/>
			<rect x="289.174" y="291.445" style="fill:#E6E6E6;" width="34.098" height="17.83"/>
			
				<rect x="323.272" y="291.445" transform="matrix(-1 -1.224647e-16 1.224647e-16 -1 679.5156 600.7199)" style="fill:#FFFFFF;" width="32.972" height="17.83"/>
			<rect x="248.661" y="291.445" style="fill:#E6E6E6;" width="34.098" height="17.83"/>
			
				<rect x="282.759" y="291.445" transform="matrix(-1 -1.224647e-16 1.224647e-16 -1 598.4911 600.7199)" style="fill:#FFFFFF;" width="32.972" height="17.83"/>
			<rect x="208.149" y="291.445" style="fill:#E6E6E6;" width="34.098" height="17.83"/>
			
				<rect x="242.247" y="291.445" transform="matrix(-1 -1.224647e-16 1.224647e-16 -1 517.4665 600.7199)" style="fill:#FFFFFF;" width="32.972" height="17.83"/>
		</g>
		<circle style="fill:#E6E6E6;" cx="208.709" cy="178.083" r="11.25"/>
		<circle style="fill:#E6E6E6;" cx="238.709" cy="178.083" r="11.25"/>
		<circle style="fill:#E6E6E6;" cx="268.709" cy="178.083" r="11.25"/>
		<circle style="fill:#E6E6E6;" cx="298.709" cy="178.083" r="11.25"/>
		
			<ellipse transform="matrix(0.9732 -0.2298 0.2298 0.9732 -57.8166 27.2682)" style="fill:#E6E6E6;" cx="88.19" cy="261.917" rx="7.417" ry="7.417"/>
		
			<ellipse transform="matrix(0.9732 -0.2298 0.2298 0.9732 -57.2876 31.8122)" style="fill:#E6E6E6;" cx="107.968" cy="261.917" rx="7.417" ry="7.417"/>
		
			<ellipse transform="matrix(0.3827 -0.9239 0.9239 0.3827 -163.1201 279.7071)" style="fill:#E6E6E6;" cx="127.745" cy="261.917" rx="7.417" ry="7.417"/>
		
			<ellipse transform="matrix(0.7071 -0.7071 0.7071 0.7071 -141.9945 181.0283)" style="fill:#E6E6E6;" cx="147.523" cy="261.917" rx="7.417" ry="7.417"/>
		<g>
			
				<ellipse transform="matrix(0.3827 -0.9239 0.9239 0.3827 -110.128 518.4377)" style="fill:#FFFFFF;" cx="332.884" cy="341.628" rx="7.705" ry="7.706"/>
			
				<ellipse transform="matrix(0.9732 -0.2298 0.2298 0.9732 -69.035 90.3404)" style="fill:#FFFFFF;" cx="353.432" cy="341.628" rx="7.705" ry="7.705"/>
			
				<ellipse transform="matrix(0.3827 -0.9239 0.9239 0.3827 -84.7588 556.4054)" style="fill:#FFFFFF;" cx="373.98" cy="341.628" rx="7.705" ry="7.706"/>
			
				<ellipse transform="matrix(0.3827 -0.9239 0.9239 0.3827 -72.0742 575.3892)" style="fill:#FFFFFF;" cx="394.528" cy="341.628" rx="7.705" ry="7.706"/>
			
				<ellipse transform="matrix(0.7071 -0.7071 0.7071 0.7071 -133.3625 339.7734)" style="fill:#FFFFFF;" cx="343.462" cy="330.869" rx="7.705" ry="7.705"/>
			
				<ellipse transform="matrix(0.3827 -0.9239 0.9239 0.3827 -80.9743 540.5525)" style="fill:#FFFFFF;" cx="364.009" cy="330.869" rx="7.705" ry="7.706"/>
			
				<ellipse transform="matrix(0.9732 -0.2298 0.2298 0.9732 -65.7306 97.2037)" style="fill:#FFFFFF;" cx="384.557" cy="330.869" rx="7.705" ry="7.705"/>
		</g>
		<g>
			
				<ellipse transform="matrix(0.7071 -0.7071 0.7071 0.7071 -173.293 264.8895)" style="fill:#FFFFFF;" cx="233.103" cy="341.628" rx="7.705" ry="7.705"/>
			
				<ellipse transform="matrix(0.3827 -0.9239 0.9239 0.3827 -159.0397 445.2362)" style="fill:#FFFFFF;" cx="253.651" cy="341.628" rx="7.705" ry="7.706"/>
			
				<ellipse transform="matrix(0.9732 -0.2298 0.2298 0.9732 -71.1545 72.1365)" style="fill:#FFFFFF;" cx="274.199" cy="341.628" rx="7.705" ry="7.705"/>
			
				<ellipse transform="matrix(0.3827 -0.9239 0.9239 0.3827 -133.6705 483.2039)" style="fill:#FFFFFF;" cx="294.747" cy="341.628" rx="7.705" ry="7.706"/>
			
				<ellipse transform="matrix(0.3827 -0.9239 0.9239 0.3827 -155.2552 429.3833)" style="fill:#FFFFFF;" cx="243.681" cy="330.869" rx="7.705" ry="7.706"/>
			
				<ellipse transform="matrix(0.7071 -0.7071 0.7071 0.7071 -156.5692 283.7475)" style="fill:#FFFFFF;" cx="264.229" cy="330.869" rx="7.705" ry="7.705"/>
			
				<ellipse transform="matrix(0.3827 -0.9239 0.9239 0.3827 -129.886 467.351)" style="fill:#FFFFFF;" cx="284.777" cy="330.869" rx="7.705" ry="7.706"/>
		</g>
		<g>
			<polygon style="fill:#E0E0E0;" points="376.959,249.199 382.611,269.333 353.007,269.333 			"/>
			<polygon style="fill:#FFFFFF;" points="376.959,249.199 366.668,269.333 397.903,269.333 			"/>
		</g>
		<g>
			<polygon style="fill:#E0E0E0;" points="330.147,249.199 335.799,269.333 306.194,269.333 			"/>
			<polygon style="fill:#FFFFFF;" points="330.147,249.199 319.856,269.333 351.091,269.333 			"/>
		</g>
		<g>
			<polygon style="fill:#E0E0E0;" points="283.334,249.199 288.987,269.333 259.382,269.333 			"/>
			<polygon style="fill:#FFFFFF;" points="283.334,249.199 273.043,269.333 304.279,269.333 			"/>
		</g>
		<g>
			<polygon style="fill:#F5F5F5;" points="90.702,209.778 87.55,229.333 104.06,229.333 			"/>
			<polygon style="fill:#FFFFFF;" points="90.702,209.778 96.441,229.333 79.021,229.333 			"/>
		</g>
		<g>
			<polygon style="fill:#F5F5F5;" points="116.81,209.778 113.657,229.333 130.168,229.333 			"/>
			<polygon style="fill:#FFFFFF;" points="116.81,209.778 122.549,229.333 105.129,229.333 			"/>
		</g>
		<g>
			<polygon style="fill:#F5F5F5;" points="142.917,209.778 139.765,229.333 156.275,229.333 			"/>
			<polygon style="fill:#FFFFFF;" points="142.917,209.778 148.656,229.333 131.236,229.333 			"/>
		</g>
		<g>
			<polygon style="fill:#E0E0E0;" points="236.522,249.199 242.174,269.333 212.57,269.333 			"/>
			<polygon style="fill:#FFFFFF;" points="236.522,249.199 226.231,269.333 257.466,269.333 			"/>
		</g>
	</g>
</g>
<g id="Background_Simple" style="display:none;">
	<g style="display:inline;">
		<path style="fill:#407BFF;" d="M58.149,205.742c-21.664-79.506,127.074-116.077,206.07-104.065
			c99.945,15.198,155.573,69.933,152.756,153.755c-2.791,83.058-97.497,130.099-167.761,94.666
			c-34.635-17.466-59.713-48.909-94.24-67.084C113.983,261.437,71.687,255.427,58.149,205.742z"/>
		<path style="opacity:0.9;fill:#FFFFFF;" d="M58.149,205.742c-21.664-79.506,127.074-116.077,206.07-104.065
			c99.945,15.198,155.573,69.933,152.756,153.755c-2.791,83.058-97.497,130.099-167.761,94.666
			c-34.635-17.466-59.713-48.909-94.24-67.084C113.983,261.437,71.687,255.427,58.149,205.742z"/>
	</g>
</g>
<g id="Shadow_1_">
	<ellipse id="_x3C_Path_x3E__106_" style="fill:#F5F5F5;" cx="250" cy="416.238" rx="193.889" ry="11.323"/>
</g>
<g id="Cash_Register">
	<g>
		<path style="fill:#407BFF;" d="M291.968,285.692h82.795c3.518,0,6.37,2.852,6.37,6.37l0,0c0,3.518-2.852,6.37-6.37,6.37h-82.795
			V285.692z"/>
		<path style="opacity:0.6;fill:#FFFFFF;" d="M291.968,285.692h82.795c3.518,0,6.37,2.852,6.37,6.37l0,0
			c0,3.518-2.852,6.37-6.37,6.37h-82.795V285.692z"/>
		<g>
			<g>
				
					<ellipse transform="matrix(0.2298 -0.9732 0.9732 0.2298 43.0509 546.3291)" style="fill:#407BFF;" cx="366.683" cy="245.966" rx="9.573" ry="9.573"/>
				
					<ellipse transform="matrix(0.2298 -0.9732 0.9732 0.2298 43.0509 546.3291)" style="opacity:0.8;fill:#FFFFFF;" cx="366.683" cy="245.966" rx="9.573" ry="9.573"/>
			</g>
			<polygon style="fill:#263238;" points="300.807,247.249 379.917,247.249 372.343,285.692 308.382,285.692 			"/>
			<g>
				<path style="fill:#407BFF;" d="M298.6,243.557h83.524c0.79,0,1.359,0.758,1.138,1.517l-0.991,3.402
					c-0.147,0.506-0.611,0.854-1.138,0.854h-81.541c-0.527,0-0.991-0.348-1.138-0.854l-0.991-3.402
					C297.241,244.316,297.81,243.557,298.6,243.557z"/>
				<path style="opacity:0.6;fill:#FFFFFF;" d="M298.6,243.557h83.524c0.79,0,1.359,0.758,1.138,1.517l-0.991,3.402
					c-0.147,0.506-0.611,0.854-1.138,0.854h-81.541c-0.527,0-0.991-0.348-1.138-0.854l-0.991-3.402
					C297.241,244.316,297.81,243.557,298.6,243.557z"/>
			</g>
			<g>
				<rect x="308.529" y="239.002" style="fill:#407BFF;" width="37.998" height="4.556"/>
				<rect x="308.529" y="239.002" style="opacity:0.2;" width="37.998" height="4.556"/>
			</g>
			<path style="fill:#407BFF;" d="M330.356,251.881c-0.185,0.559-0.744,0.933-1.325,0.835c-2.98-0.504-4.485-3.237-3.396-6.523
				l7.657-23.097c1.208-3.643,5.154-6.607,8.797-6.607h13.55c3.643,0,5.624,2.964,4.416,6.607l-6.784,20.462h-2.272l6.784-20.462
				c0.792-2.39-0.507-4.334-2.897-4.334h-13.55c-2.39,0-4.979,1.944-5.771,4.334l-7.657,23.097c-0.647,1.951,0.1,3.605,1.697,4.147
				C330.236,250.553,330.566,251.248,330.356,251.881L330.356,251.881z"/>
		</g>
		<path style="fill:#407BFF;" d="M308.791,240.622H179.984c-4.775,0-8.646,3.871-8.646,8.646v158.324
			c0,4.775,3.871,8.646,8.646,8.646h128.807c4.775,0,8.646-3.871,8.646-8.646V249.268
			C317.437,244.493,313.566,240.622,308.791,240.622z"/>
		<path style="fill:#407BFF;" d="M206.899,306.225H86.898c-3.518,0-6.37,2.852-6.37,6.37l0,0c0,3.518,2.852,6.37,6.37,6.37h120.001
			V306.225z"/>
		<polygon style="opacity:0.3;fill:#263238;" points="206.899,322.498 171.489,338.531 171.489,318.965 206.899,318.965 		"/>
		<path style="opacity:0.7;fill:#FFFFFF;" d="M206.899,306.225h-76.425c-3.518,0-6.37,2.852-6.37,6.37l0,0
			c0,3.518,2.852,6.37,6.37,6.37h76.425V306.225z"/>
		<path style="opacity:0.7;fill:#FFFFFF;" d="M308.791,240.622h-88.907c-4.775,0-8.646,3.871-8.646,8.646v158.324
			c0,4.775,3.871,8.646,8.646,8.646h88.907c4.775,0,8.646-3.871,8.646-8.646V249.268
			C317.437,244.493,313.566,240.622,308.791,240.622z"/>
		<g>
			<rect x="127.942" y="318.965" style="fill:#407BFF;" width="10.849" height="97.273"/>
			<rect x="127.942" y="318.965" style="opacity:0.7;fill:#FFFFFF;" width="10.849" height="97.273"/>
		</g>
		<polygon style="opacity:0.3;fill:#407BFF;" points="138.792,323.191 127.942,325.542 127.942,318.965 138.792,318.965 		"/>
		<path style="opacity:0.3;fill:#407BFF;" d="M305.021,294.11h-81.366c-1.365,0-2.471-1.106-2.471-2.471v-27.785
			c0-1.365,1.106-2.471,2.471-2.471h81.366c1.365,0,2.471,1.106,2.471,2.471v27.785C307.492,293.004,306.386,294.11,305.021,294.11z
			"/>
		<g>
			<polygon style="fill:#407BFF;" points="159.489,223.41 100.193,223.41 94.181,306.225 165.501,306.225 			"/>
			<polygon style="opacity:0.3;fill:#263238;" points="108.059,223.41 100.193,223.41 94.181,306.225 110.138,306.225 			"/>
			<path style="fill:#407BFF;" d="M133.449,233.508c-5.539,0-10.502-3.885-11.327-9.063c-0.409-2.564,0.245-5.105,1.841-7.154
				c1.735-2.228,4.456-3.661,7.466-3.932c5.956-0.536,11.51,3.509,12.387,9.015c0.409,2.564-0.246,5.105-1.841,7.154
				c-1.735,2.228-4.456,3.661-7.466,3.931C134.154,233.492,133.8,233.508,133.449,233.508z M132.497,215.069
				c-0.302,0-0.606,0.013-0.911,0.041c-2.527,0.227-4.8,1.416-6.237,3.261c-1.293,1.661-1.823,3.72-1.492,5.798
				c0.735,4.612,5.443,7.998,10.495,7.542c2.527-0.227,4.8-1.416,6.237-3.261c1.293-1.661,1.823-3.72,1.492-5.798
				C141.39,218.317,137.192,215.069,132.497,215.069z"/>
			<path style="fill:#407BFF;" d="M128.964,233.508c-0.352,0-0.705-0.016-1.06-0.048c-3.01-0.271-5.731-1.703-7.466-3.931
				c-1.596-2.049-2.25-4.59-1.841-7.154c0.877-5.506,6.432-9.551,12.387-9.015c3.01,0.271,5.731,1.703,7.466,3.931
				c1.596,2.049,2.25,4.59,1.841,7.154C139.467,229.623,134.503,233.508,128.964,233.508z M129.916,215.069
				c-4.696,0-8.893,3.248-9.584,7.582c-0.331,2.078,0.199,4.137,1.492,5.798c1.437,1.845,3.71,3.034,6.237,3.261
				c5.052,0.453,9.76-2.929,10.495-7.541c0.331-2.078-0.199-4.137-1.492-5.798c-1.437-1.845-3.71-3.034-6.237-3.261
				C130.522,215.082,130.218,215.069,129.916,215.069z"/>
		</g>
		<rect x="218.411" y="110.556" style="fill:#407BFF;" width="17.599" height="130.067"/>
		<polygon style="opacity:0.3;fill:#263238;" points="236.01,180.197 218.411,180.197 218.411,214.19 236.01,212.02 		"/>
		<polygon style="opacity:0.3;fill:#263238;" points="236.01,111.45 218.411,111.45 218.411,121.336 236.01,119.167 		"/>
		<path style="fill:#263238;" d="M181.246,204.387l-4.902-71.251c-0.174-2.537,1.836-4.69,4.378-4.69h109.41
			c2.307,0,4.22,1.786,4.378,4.087l4.902,71.251c0.174,2.537-1.836,4.69-4.378,4.69h-109.41
			C183.317,208.474,181.404,206.688,181.246,204.387z"/>
		<g>
			<path style="fill:#407BFF;" d="M288.875,131.701h-106.71c-1.437,0-2.574,1.217-2.475,2.651l4.717,68.557
				c0.09,1.301,1.171,2.311,2.475,2.311h106.71c1.437,0,2.574-1.217,2.475-2.651l-4.717-68.557
				C291.26,132.71,290.179,131.701,288.875,131.701z"/>
			<path style="opacity:0.8;fill:#FFFFFF;" d="M288.875,131.701h-106.71c-1.437,0-2.574,1.217-2.475,2.651l4.717,68.557
				c0.09,1.301,1.171,2.311,2.475,2.311h106.71c1.437,0,2.574-1.217,2.475-2.651l-4.717-68.557
				C291.26,132.71,290.179,131.701,288.875,131.701z"/>
		</g>
		<rect x="196.291" y="238.238" style="fill:#263238;" width="93.662" height="2.384"/>
		<polygon style="opacity:0.3;fill:#407BFF;" points="263.878,197.193 193.397,197.193 189.492,140.434 259.973,140.434 		"/>
		<polygon style="opacity:0.3;fill:#407BFF;" points="284.026,145.514 265.035,145.514 264.685,140.434 283.676,140.434 		"/>
		<polygon style="opacity:0.3;fill:#407BFF;" points="285.434,165.977 266.443,165.977 265.447,151.504 284.438,151.504 		"/>
		<rect x="208.982" y="90.111" style="fill:#407BFF;" width="35.406" height="26.425"/>
		<rect x="208.982" y="90.111" style="opacity:0.3;fill:#263238;" width="14.735" height="26.425"/>
	</g>
</g>
<g id="Character_1_">
	<g>
		<path style="fill:#FF8B7B;" d="M320.797,203.81l1.955-2.49c0.735-0.936,1.878-1.46,3.067-1.404l5.557,0.257
			c2.222,0.103,4.256,1.275,5.459,3.146l0.745,1.158c-2.96,4.351-9.365,6.872-9.365,6.872l-1.746,0.921
			c-1.555,0.819-3.38,0.302-4.193-1.191l-1.87-3.436C319.76,206.457,319.915,204.931,320.797,203.81z"/>
		<path style="fill:#FF8B7B;" d="M340.155,153.94c0.573,0.706,0.97,1.214,1.417,1.806c0.436,0.572,0.839,1.152,1.249,1.729
			c0.818,1.15,1.566,2.336,2.316,3.519c1.465,2.386,2.827,4.836,4.04,7.378c0.62,1.261,1.186,2.558,1.75,3.854
			c0.521,1.322,1.056,2.632,1.513,3.989c0.987,2.672,1.694,5.492,2.322,8.323l0.103,0.463c0.07,0.314,0.102,0.65,0.103,0.958
			c-0.006,1.937-0.407,3.723-1.012,5.221c-0.602,1.507-1.355,2.773-2.146,3.889c-1.594,2.204-3.393,3.824-5.184,5.246
			c-1.818,1.4-3.675,2.564-5.58,3.578c-1.935,1.012-3.791,1.855-5.955,2.587c-1.973,0.667-4.114-0.392-4.781-2.365
			c-0.476-1.407-0.074-2.9,0.912-3.882l0.247-0.244c1.234-1.226,2.648-2.556,3.878-3.857c1.251-1.311,2.441-2.628,3.447-3.95
			c1.033-1.293,1.844-2.637,2.345-3.751c0.498-1.124,0.441-1.949,0.29-1.958l0.206,1.421c-0.75-2.16-1.547-4.305-2.519-6.432
			c-0.967-2.119-2.01-4.226-3.16-6.296c-1.157-2.063-2.35-4.123-3.64-6.124c-0.637-1.004-1.301-1.99-1.956-2.97l-0.995-1.442
			l-0.917-1.299l-0.238-0.337c-2.389-3.382-1.583-8.061,1.8-10.45C333.247,150.257,337.687,150.917,340.155,153.94z"/>
		<path style="fill:#263238;" d="M326.428,145.464c-2.813,6.398-2.633,14.39,6.039,26.609c5.743,0.623,16.365-6.829,16.365-6.829
			S341.501,144.789,326.428,145.464z"/>
		<path style="fill:#FF8B7B;" d="M321.622,123.211c-1.677,6.199-3.736,17.557,0.292,21.693c0,0-5.871-0.882-18.337,6.828
			c-3.61-5.177-0.928-6.827-0.928-6.827c7.035-1.651,7.239-6.779,6.394-11.596L321.622,123.211z"/>
		<path style="fill:#407BFF;" d="M296.265,149.507c1.846-3.959,6.205-7.803,9.212-7.232s4.843,1.51,6.628,0.025
			c1.785-1.485,6.174-3.708,8.421-1.224c3.147,3.479,7.918,1.021,6.116,4.815C324.696,149.986,296.265,149.507,296.265,149.507z"/>
		<path style="fill:#263238;" d="M299.094,111.834c-0.121,0.847-0.66,1.501-1.202,1.461c-0.542-0.04-0.883-0.759-0.762-1.606
			c0.122-0.847,0.66-1.501,1.202-1.461C298.874,110.268,299.215,110.987,299.094,111.834z"/>
		<path style="fill:#263238;" d="M298.565,110.293l-1.908-0.733C296.656,109.56,297.451,111.224,298.565,110.293z"/>
		<path style="fill:#FF5652;" d="M298.906,113.433c0,0-1.931,3.542-3.733,5.187c0.945,1.124,2.876,0.785,2.876,0.785
			L298.906,113.433z"/>
		<path style="fill:#263238;" d="M297.681,105.09c-0.064-0.105-0.088-0.231-0.056-0.355c0.066-0.255,0.341-0.403,0.615-0.332
			c2.747,0.722,3.568,2.83,3.602,2.92c0.095,0.253-0.043,0.522-0.308,0.601c-0.265,0.079-0.556-0.062-0.653-0.314
			c-0.031-0.083-0.692-1.71-2.877-2.283C297.862,105.289,297.749,105.201,297.681,105.09z"/>
		<path style="fill:#FF8B7B;" d="M326.915,110.769c-1.881,10.009-2.465,14.274-8.176,19.075c-8.591,7.221-20.395,3.401-21.523-6.803
			c-1.016-9.185,2.231-24.01,12.545-27.315C319.923,92.47,328.796,100.76,326.915,110.769z"/>
		<path style="fill:#263238;" d="M304.499,114c-3.616-5.667-7.535-12.75-5.075-17.667c2.46-4.917,8.043-3.75,8.043-3.75
			s10.833-6.083,20.5,1.833c12.863,10.534-0.931,22.12-4.333,32.167C319.891,137.634,300.448,124.25,304.499,114z"/>
		<g>
			<path style="fill:#263238;" d="M359.917,95.619c-5.222-19.445-28.17-10.513-34.839,0.974l2.722,0.703
				c27.369-17.652,13.895,7.878,14.117,18.28c0.222,10.401,10.556,16.821,10.556,16.821S365.139,115.063,359.917,95.619z"/>
			<path style="fill:#263238;" d="M352.983,130.024c-2.927,0-7.004-0.557-9.66-3.242c-2.406-2.433-3.15-6.146-2.21-11.037
				c0.298-1.55,0.775-3.352,1.28-5.26c1.579-5.965,3.543-13.388,0.446-16.007c-2.18-1.844-6.77-1.2-13.645,1.917
				c-0.124,0.057-0.273,0.002-0.331-0.124c-0.057-0.126-0.001-0.274,0.125-0.331c7.164-3.248,11.8-3.85,14.174-1.843
				c3.339,2.823,1.413,10.098-0.286,16.517c-0.503,1.9-0.978,3.694-1.273,5.227c-0.907,4.719-0.21,8.282,2.073,10.59
				c4.256,4.305,12.692,2.84,12.778,2.825c0.135-0.026,0.266,0.066,0.29,0.202c0.024,0.136-0.066,0.266-0.202,0.29
				C356.401,129.772,354.953,130.024,352.983,130.024z"/>
		</g>
		<path style="fill:#407BFF;" d="M328.386,92.344c0.259-1.276-2.948-0.74-3.094,0.385c-0.146,1.125-0.576,0.504-1.826,2.15
			c-1.25,1.646-1.421,3.591,2.68,4.871c2.604,0.813,2.979-1.188,4.333-2.188c0.731-0.54,1.549-0.826,2.077-1.23
			c0.598-0.457,0.332-1.417-0.418-1.481C330.46,94.708,328.134,93.586,328.386,92.344z"/>
		<path style="fill:#FF8B7B;" d="M306.337,117.559c-1.113,2.006-2.848,3.197-4.413,3.541c-2.353,0.517-3.248-2.195-2.358-4.826
			c0.801-2.368,2.991-5.491,5.24-4.813C307.021,112.129,307.609,115.265,306.337,117.559z"/>
		<path style="fill:#263238;" d="M349.125,421.167c7.775-1.153,7.923-2.445,12.094-3.906c3.568-1.259,4.573-1.078,7.453-2.051
			c2.407-0.81,1.59-3.102,0.007-5.536c-0.793-1.223-0.907-2.387-1.774-4.552l-11.81,1.752c-1.149,3.297-1.555,7.516-8.296,9.929
			C342.783,418.239,346.026,421.626,349.125,421.167z"/>
		<path style="fill:#263238;" d="M277.114,421.196c7.725-0.014,9.211-0.508,13.552-0.656c3.721-0.135,4.333,0.656,8.105,0.656
			c2.499,0,2.844-2.815,1.929-4.925c-0.712-1.644-0.821-3.61-1.339-5.744H288.71c-1.922,3.376-7.16,5.875-13.016,6.294
			C271.508,417.131,274.021,421.196,277.114,421.196z"/>
		<path style="fill:#263238;" d="M286.145,210.63c0,0-1.54,55.582,1.751,90.877c-0.206,33.136,0.814,109.02,0.814,109.02
			c0.257,1.693,9.145,1.017,10.652,0c0,0,16.643-55.272,9.255-109.02c18.496-56.056,14.507-90.877,14.507-90.877H286.145z"/>
		<path style="fill:#263238;" d="M297.233,210.63c0,0,18.057,62.735,25.382,93.54c7.693,32.353,30.577,81.258,32.479,102.703
			c1.978,0.788,8.389-0.098,11.81-1.752c0,0-3.137-68.375-21.73-99.521c4.198-76.637-16.602-94.971-16.602-94.971H297.233z"/>
		<path style="fill:#407BFF;" d="M353.545,402.578c0.125,1.077,0.304,2.96,0.238,4.428c-0.024,0.529,0.393,0.954,0.923,0.961
			c4.425,0.051,10.532-1.879,12.464-2.531c0.37-0.125,0.614-0.469,0.617-0.86l0.038-4.18c0.005-0.572-0.507-1.009-1.071-0.914
			l-12.449,2.092C353.824,401.654,353.489,402.092,353.545,402.578z"/>
		<path style="fill:#407BFF;" d="M287.49,405.857c-0.032,1.151-0.099,3.202-0.205,4.718c-0.035,0.501,0.338,0.944,0.842,1.013
			c3.77,0.519,9.78,0.048,11.753-0.131c0.391-0.035,0.7-0.318,0.773-0.701l0.792-4.127c0.108-0.563-0.331-1.108-0.91-1.131
			l-12.133-0.483C287.907,404.995,287.504,405.363,287.49,405.857z"/>
		<path style="fill:#263238;" d="M283.742,160.682c-0.129,4.172-0.299,9.451,0.279,19.409c0.328,8.428,0.907,16.722,2.125,30.54
			h42.427c-0.853-11.952,0.54-25.572,8.158-52.464c1.766-6.235-2.173-12.223-8.462-12.861c-1.681-0.171-3.464-0.313-5.294-0.401
			c-7.114-0.344-12.947-0.572-19.266,0.001c-2.094,0.19-4.264,0.453-6.339,0.741C289.882,146.685,283.972,153.206,283.742,160.682z"
			/>
		<path style="fill:#407BFF;" d="M328.357,205.384c-8.487,2.167-21.409,2.789-42.621,0.521c0.51,11.254-4.432,86.903-4.432,86.903
			s42.993,9.454,67.303-3.376C350.182,232.258,328.357,205.384,328.357,205.384z"/>
		<path style="opacity:0.2;" d="M312.128,251.024c0,0,11.67-10.874,17.435-18.292C329.103,240.486,322.147,247.465,312.128,251.024z
			"/>
		<path style="fill:#FF8B7B;" d="M247.752,160.617l2.822,1.434c1.061,0.539,1.797,1.558,1.974,2.735l0.828,5.501
			c0.331,2.199-0.423,4.423-2.024,5.967l-0.991,0.956c-4.844-2.057-8.562-7.85-8.562-7.85l-1.243-1.533
			c-1.106-1.366-0.954-3.257,0.353-4.344l3.007-2.503C244.954,160.115,246.481,159.971,247.752,160.617z"/>
		<path style="fill:#FF8B7B;" d="M298.396,161.621c-0.307,0.856-0.537,1.458-0.811,2.147c-0.264,0.669-0.551,1.315-0.832,1.963
			c-0.561,1.296-1.187,2.55-1.811,3.804c-1.283,2.489-2.674,4.923-4.22,7.276c-0.758,1.184-1.575,2.34-2.391,3.493
			c-0.861,1.13-1.705,2.266-2.629,3.36c-1.775,2.228-3.822,4.293-5.918,6.296l-0.278,0.266c-0.252,0.241-0.547,0.466-0.83,0.646
			c-1.255,0.786-2.662,1.296-3.964,1.536c-1.309,0.247-2.513,0.25-3.58,0.139c-2.136-0.233-3.786-0.824-5.261-1.454
			c-2.917-1.289-5.137-2.913-7.233-4.556c-2.061-1.68-3.922-3.444-5.66-5.294c-1.741-1.873-3.329-3.732-4.865-5.867
			c-1.213-1.687-0.828-4.039,0.859-5.251c1.292-0.929,2.974-0.92,4.235-0.108l0.172,0.112c1.864,1.208,3.833,2.529,5.753,3.709
			c1.93,1.194,3.858,2.334,5.763,3.3c1.874,0.985,3.801,1.779,5.351,2.174c0.757,0.191,1.431,0.24,1.679,0.158
			c0.122-0.04,0.119-0.095-0.024-0.1c-0.138-0.009-0.419,0.053-0.676,0.186l-1.109,0.912c1.46-1.76,2.882-3.553,4.198-5.485
			c1.313-1.924,2.574-3.908,3.75-5.964c1.166-2.059,2.311-4.145,3.355-6.285c0.529-1.065,1.029-2.143,1.528-3.211l0.718-1.598
			l0.637-1.458l0.165-0.378c1.657-3.795,6.077-5.528,9.872-3.872C297.971,153.803,299.706,157.943,298.396,161.621z"/>
		<path style="fill:#263238;" d="M298.54,145.488c-6.93,0.906-13.674,5.198-19.638,18.944c2.441,5.235,14.315,10.464,14.315,10.464
			S306.923,158.033,298.54,145.488z"/>
	</g>
</g>
</svg>
