<?xml version="1.0" encoding="utf-8"?>
<!-- Generator: Adobe Illustrator 27.5.0, SVG Export Plug-In . SVG Version: 6.00 Build 0)  -->
<svg version="1.1" xmlns="http://www.w3.org/2000/svg" xmlns:xlink="http://www.w3.org/1999/xlink" x="0px" y="0px"
	 viewBox="0 0 500 500" style="enable-background:new 0 0 500 500;" xml:space="preserve">
<g id="Background_Complete">
	<g>
		<rect x="416.779" y="398.494" style="fill:#EBEBEB;" width="33.122" height="0.25"/>
		<rect x="322.527" y="401.208" style="fill:#EBEBEB;" width="8.693" height="0.25"/>
		<rect x="396.586" y="389.208" style="fill:#EBEBEB;" width="19.192" height="0.25"/>
		<rect x="52.459" y="390.888" style="fill:#EBEBEB;" width="43.193" height="0.25"/>
		<rect x="104.556" y="390.888" style="fill:#EBEBEB;" width="6.333" height="0.25"/>
		<rect x="131.471" y="395.111" style="fill:#EBEBEB;" width="93.676" height="0.25"/>
		<g>
			<path style="fill:#EBEBEB;" d="M238.401,337.8H45.302c-3.147,0-5.708-2.561-5.708-5.708V60.66c0-3.147,2.561-5.708,5.708-5.708
				h193.099c3.146,0,5.707,2.561,5.707,5.708v271.432C244.108,335.239,241.547,337.8,238.401,337.8z M45.302,55.203
				c-3.01,0-5.458,2.448-5.458,5.458v271.432c0,3.01,2.448,5.458,5.458,5.458h193.099c3.009,0,5.457-2.448,5.457-5.458V60.66
				c0-3.009-2.448-5.458-5.457-5.458H45.302z"/>
			<path style="fill:#EBEBEB;" d="M454.698,337.8H261.599c-3.146,0-5.707-2.561-5.707-5.708V60.66c0-3.147,2.561-5.708,5.707-5.708
				h193.099c3.148,0,5.708,2.561,5.708,5.708v271.432C460.406,335.239,457.845,337.8,454.698,337.8z M261.599,55.203
				c-3.009,0-5.457,2.448-5.457,5.458v271.432c0,3.01,2.448,5.458,5.457,5.458h193.099c3.01,0,5.458-2.448,5.458-5.458V60.66
				c0-3.009-2.448-5.458-5.458-5.458H261.599z"/>
		</g>
		<rect y="382.398" style="fill:#EBEBEB;" width="500" height="0.25"/>
	</g>
	<g>
		<g>
			<rect x="47.783" y="115.55" style="fill:#E6E6E6;" width="112.262" height="266.456"/>
			<rect x="52.557" y="120.376" style="fill:#F0F0F0;" width="102.714" height="261.63"/>
			<rect x="60.328" y="154.89" style="fill:#FAFAFA;" width="87.718" height="95.816"/>
			<rect x="60.328" y="279.685" style="fill:#E6E6E6;" width="87.718" height="95.816"/>
			<path style="fill:#FAFAFA;" d="M148.046,149.934H60.328v-5.332c0-9.544,7.737-17.281,17.281-17.281h53.156
				c9.544,0,17.281,7.737,17.281,17.281V149.934z"/>
			<rect x="60.328" y="255.021" style="fill:#E6E6E6;" width="7.489" height="19.515"/>
			
				<rect x="67.817" y="255.021" transform="matrix(-1 -1.224647e-16 1.224647e-16 -1 137.1056 529.5565)" style="fill:#E0E0E0;" width="1.471" height="19.515"/>
			<path style="fill:#E0E0E0;" d="M65.344,262.687c0,1.744-1.414,3.158-3.158,3.158c-1.744,0-3.158-1.414-3.158-3.158
				c0-1.744,1.414-3.158,3.158-3.158C63.93,259.529,65.344,260.943,65.344,262.687z"/>
			<rect x="63.115" y="268.147" style="fill:#E0E0E0;" width="1.627" height="3.95"/>
			<path style="fill:#F5F5F5;" d="M63.813,262.687c0,2.438-1.976,4.414-4.414,4.414c-2.438,0-4.414-1.976-4.414-4.414
				c0-2.438,1.976-4.414,4.414-4.414C61.837,258.273,63.813,260.25,63.813,262.687z"/>
			<g>
				<polygon style="fill:#F5F5F5;" points="91.188,127.321 86.171,127.321 81.365,149.934 86.382,149.934 				"/>
				<path style="fill:#F5F5F5;" d="M146.968,137.633c-0.841-2.191-2.14-4.153-3.793-5.76l-3.839,18.061h5.017L146.968,137.633z"/>
				<path style="fill:#F5F5F5;" d="M136.566,127.993c-1.452-0.432-2.987-0.672-4.579-0.672h-18.51l-4.807,22.613h23.232
					L136.566,127.993z"/>
			</g>
			<g>
				<polygon style="fill:#F5F5F5;" points="85.328,154.89 80.311,154.89 60.328,248.902 60.328,250.706 64.962,250.706 				"/>
				<polygon style="fill:#F5F5F5;" points="130.849,154.89 107.617,154.89 87.25,250.706 110.482,250.706 				"/>
				<polygon style="fill:#F5F5F5;" points="143.3,154.89 138.283,154.89 117.917,250.706 122.934,250.706 				"/>
			</g>
		</g>
		<g>
			<rect x="421.567" y="73.563" style="fill:#E6E6E6;" width="0.981" height="29.071"/>
			<g>
				<polygon style="fill:#E6E6E6;" points="453.121,118.788 422.057,100.015 390.994,118.788 				"/>
				<polygon style="fill:#FAFAFA;" points="419.913,118.788 422.057,100.015 408.094,118.788 				"/>
			</g>
		</g>
		<g>
			<path style="fill:#F5F5F5;" d="M424.201,302.166h-27.92c-0.729,0-1.319-0.591-1.319-1.319v-5.562c0-0.728,0.59-1.319,1.319-1.319
				h27.92c0.728,0,1.319,0.591,1.319,1.319v5.562C425.52,301.576,424.929,302.166,424.201,302.166z"/>
			<path style="fill:#F5F5F5;" d="M424.201,322.511h-27.92c-0.729,0-1.319-0.591-1.319-1.319v-5.562c0-0.728,0.59-1.319,1.319-1.319
				h27.92c0.728,0,1.319,0.591,1.319,1.319v5.562C425.52,321.92,424.929,322.511,424.201,322.511z"/>
			<path style="fill:#F0F0F0;" d="M446.853,312.328h-27.92c-0.728,0-1.319-0.591-1.319-1.319v-5.562
				c0-0.728,0.591-1.319,1.319-1.319h27.92c0.729,0,1.319,0.591,1.319,1.319v5.562C448.172,311.737,447.582,312.328,446.853,312.328
				z"/>
		</g>
		<g>
			<path style="fill:#F5F5F5;" d="M374.346,217.243h28.917c0.728,0,1.319,0.59,1.319,1.319v5.83c0,0.729-0.591,1.319-1.319,1.319
				h-28.917c-0.728,0-1.319-0.59-1.319-1.319v-5.83C373.027,217.833,373.618,217.243,374.346,217.243z"/>
			<path style="fill:#F5F5F5;" d="M383.982,206.749h28.917c0.728,0,1.319,0.59,1.319,1.319v5.83c0,0.728-0.591,1.319-1.319,1.319
				h-28.917c-0.729,0-1.319-0.591-1.319-1.319v-5.83C382.663,207.34,383.253,206.749,383.982,206.749z"/>
			<path style="fill:#F0F0F0;" d="M350.955,206.749h28.917c0.728,0,1.319,0.59,1.319,1.319v5.83c0,0.728-0.591,1.319-1.319,1.319
				h-28.917c-0.729,0-1.319-0.591-1.319-1.319v-5.83C349.636,207.34,350.226,206.749,350.955,206.749z"/>
		</g>
	</g>
</g>
<g id="Background_Simple" style="display:none;">
	<g style="display:inline;">
		<path style="fill:#407BFF;" d="M260.64,200.429c-23.337-8.891-27.44-39.356-75.5-62.731
			c-46.605-22.668-107.285,8.443-128.212,53.744c-25.601,55.419,1.265,120.812,45.927,139.878
			c46.726,19.947,95.636-10.867,127.329-7.372c32.869,3.625,51.387,58.015,118.725,58.311
			c52.755,0.232,92.566-36.559,102.759-113.217c6.491-48.815-8.931-98.464-79.19-104.034
			C319.832,160.834,286.581,210.313,260.64,200.429z"/>
		<path style="opacity:0.9;fill:#FFFFFF;" d="M260.64,200.429c-23.337-8.891-27.44-39.356-75.5-62.731
			c-46.605-22.668-107.285,8.443-128.212,53.744c-25.601,55.419,1.265,120.812,45.927,139.878
			c46.726,19.947,95.636-10.867,127.329-7.372c32.869,3.625,51.387,58.015,118.725,58.311
			c52.755,0.232,92.566-36.559,102.759-113.217c6.491-48.815-8.931-98.464-79.19-104.034
			C319.832,160.834,286.581,210.313,260.64,200.429z"/>
	</g>
</g>
<g id="Shadow">
	<ellipse id="_x3C_Path_x3E__1_" style="fill:#F5F5F5;" cx="250" cy="412.391" rx="193.889" ry="11.323"/>
</g>
<g id="Barcode">
	<g id="barcode_1_">
		<rect x="227.942" y="73.406" style="fill:#263238;" width="3.035" height="75.866"/>
		<rect x="232.494" y="73.406" style="fill:#263238;" width="1.517" height="75.866"/>
		<rect x="237.046" y="73.406" style="fill:#263238;" width="1.517" height="75.866"/>
		<rect x="244.633" y="73.406" style="fill:#263238;" width="3.035" height="75.866"/>
		<rect x="250.702" y="73.406" style="fill:#263238;" width="1.517" height="75.866"/>
		<rect x="253.737" y="73.406" style="fill:#263238;" width="4.552" height="75.866"/>
		<rect x="261.323" y="73.406" style="fill:#263238;" width="1.517" height="75.866"/>
		<rect x="264.358" y="73.406" style="fill:#263238;" width="1.517" height="75.866"/>
		<rect x="270.427" y="73.406" style="fill:#263238;" width="3.035" height="75.866"/>
		<rect x="278.014" y="73.406" style="fill:#263238;" width="3.035" height="75.866"/>
		<rect x="282.566" y="73.406" style="fill:#263238;" width="4.552" height="75.866"/>
		<rect x="290.152" y="73.406" style="fill:#263238;" width="1.517" height="75.866"/>
		<rect x="294.704" y="73.406" style="fill:#263238;" width="3.035" height="75.866"/>
		<rect x="300.773" y="73.406" style="fill:#263238;" width="4.552" height="75.866"/>
		<rect x="306.843" y="73.406" style="fill:#263238;" width="1.517" height="75.866"/>
		<rect x="311.395" y="73.406" style="fill:#263238;" width="4.552" height="75.866"/>
		<rect x="317.464" y="73.406" style="fill:#263238;" width="3.035" height="75.866"/>
		<rect x="322.016" y="73.406" style="fill:#263238;" width="4.552" height="75.866"/>
		<rect x="328.085" y="73.406" style="fill:#263238;" width="1.517" height="75.866"/>
		<rect x="334.155" y="73.406" style="fill:#263238;" width="1.517" height="75.866"/>
		<rect x="337.189" y="73.406" style="fill:#263238;" width="3.035" height="75.866"/>
		<rect x="344.776" y="73.406" style="fill:#263238;" width="3.035" height="75.866"/>
		<rect x="352.362" y="73.406" style="fill:#263238;" width="1.517" height="75.866"/>
		<rect x="358.432" y="73.406" style="fill:#263238;" width="1.517" height="75.866"/>
		<rect x="361.466" y="73.406" style="fill:#263238;" width="3.035" height="75.866"/>
		<rect x="369.053" y="73.406" style="fill:#263238;" width="4.552" height="75.866"/>
		<rect x="375.122" y="73.406" style="fill:#263238;" width="1.517" height="75.866"/>
		<rect x="378.157" y="73.406" style="fill:#263238;" width="3.035" height="75.866"/>
		<g style="enable-background:new    ;">
			<path style="fill:#263238;" d="M289.533,160.38c0,1.431-1.08,2.669-3.361,2.669c-1.201,0-2.402-0.364-3.191-0.983l0.679-1.226
				c0.607,0.51,1.529,0.837,2.487,0.837c1.128,0,1.795-0.497,1.795-1.286c0-0.764-0.558-1.262-1.844-1.262h-0.776v-1.08l1.929-2.293
				h-3.858v-1.323h5.787v1.056l-2.062,2.451C288.72,158.148,289.533,159.106,289.533,160.38z"/>
			<path style="fill:#263238;" d="M296.718,160.962h-4.246l-0.837,1.965h-1.626l3.822-8.493h1.553l3.834,8.493h-1.65
				L296.718,160.962z M296.196,159.725l-1.601-3.712l-1.59,3.712H296.196z"/>
			<path style="fill:#263238;" d="M305.871,160.319c0,1.492-1.08,2.73-3.36,2.73c-1.201,0-2.414-0.364-3.191-0.983l0.667-1.226
				c0.619,0.51,1.54,0.837,2.499,0.837c1.129,0,1.796-0.497,1.796-1.298c0-0.813-0.522-1.323-2.281-1.323h-2.05l0.437-4.623h4.986
				v1.323h-3.652l-0.181,1.965h0.813C304.864,157.723,305.871,158.815,305.871,160.319z"/>
			<path style="fill:#263238;" d="M313.566,160.295c0,1.686-1.371,2.754-3.106,2.754c-2.317,0-3.676-1.492-3.676-4.222
				c0-2.912,1.698-4.514,4.161-4.514c0.849,0,1.663,0.182,2.232,0.546l-0.582,1.189c-0.461-0.303-1.019-0.412-1.613-0.412
				c-1.602,0-2.609,0.995-2.609,2.924v0.012c0.51-0.595,1.323-0.886,2.269-0.886C312.316,157.686,313.566,158.705,313.566,160.295z
				 M312.038,160.368c0-0.886-0.667-1.444-1.699-1.444c-1.019,0-1.723,0.618-1.723,1.456c0,0.801,0.631,1.431,1.759,1.431
				C311.358,161.811,312.038,161.253,312.038,160.368z"/>
			<path style="fill:#263238;" d="M320.741,154.435v1.056l-3.3,7.437h-1.687l3.191-7.158h-3.336v1.444h-1.468v-2.778H320.741z"/>
			<path style="fill:#263238;" d="M329.868,160.622c0,1.456-1.141,2.305-3.325,2.305h-4.222v-8.493h3.979
				c2.038,0,3.13,0.861,3.13,2.208c0,0.874-0.437,1.517-1.092,1.868C329.249,158.803,329.868,159.518,329.868,160.622z
				 M323.898,155.672v2.341h2.232c1.092,0,1.711-0.388,1.711-1.165c0-0.789-0.619-1.177-1.711-1.177H323.898z M328.278,160.465
				c0-0.849-0.643-1.225-1.832-1.225h-2.548v2.451h2.548C327.635,161.69,328.278,161.314,328.278,160.465z"/>
		</g>
	</g>
</g>
<g id="Character">
	<desc>23888</desc>
	<g>
		<g>
			<polygon style="fill:#CE7A63;" points="237.456,409.023 229.244,408.547 228.016,389.393 236.229,389.87 			"/>
			<path style="fill:#263238;" d="M238.483,404.127h-10.029c-0.336,0-0.63,0.234-0.706,0.562l-1.698,7.312
				c-0.176,0.758,0.413,1.476,1.19,1.463c3.227-0.056,5.584-0.245,9.648-0.245c2.5,0,10.038,0.26,13.491,0.26
				c3.377,0,3.938-3.414,2.528-3.724c-6.324-1.386-11.081-3.298-13.092-5.123C239.45,404.304,238.975,404.127,238.483,404.127z"/>
			<g>
				<polygon style="opacity:0.2;" points="236.231,389.875 228.015,389.398 228.652,399.271 236.868,399.348 				"/>
			</g>
			<path style="fill:#407BFF;" d="M239.039,405.27c-0.076-0.019-0.133-0.081-0.145-0.158c-0.012-0.078,0.024-0.155,0.091-0.197
				c0.301-0.187,2.974-1.819,3.877-1.35c0.14,0.072,0.311,0.227,0.328,0.551c0.023,0.436-0.116,0.782-0.413,1.03
				c-0.376,0.313-0.962,0.419-1.589,0.419C240.428,405.565,239.609,405.407,239.039,405.27z M239.607,404.995
				c1.393,0.281,2.468,0.229,2.922-0.148c0.199-0.166,0.288-0.397,0.272-0.707c-0.008-0.152-0.069-0.202-0.121-0.229
				c-0.065-0.034-0.151-0.049-0.252-0.049C241.797,403.862,240.541,404.458,239.607,404.995z"/>
			<path style="fill:#407BFF;" d="M238.979,405.243c-0.06-0.039-0.093-0.107-0.086-0.179c0.009-0.1,0.229-2.475,1.193-3.255
				c0.25-0.203,0.53-0.286,0.832-0.251c0.465,0.057,0.585,0.345,0.615,0.511c0.165,0.917-1.499,2.72-2.355,3.182
				c-0.029,0.015-0.061,0.023-0.093,0.023C239.048,405.275,239.011,405.264,238.979,405.243z M240.329,402.111
				c-0.618,0.5-0.895,1.884-0.997,2.577c0.853-0.642,1.915-2.005,1.817-2.546c-0.009-0.05-0.03-0.166-0.283-0.197
				c-0.03-0.004-0.059-0.005-0.088-0.005C240.618,401.94,240.471,401.996,240.329,402.111z"/>
		</g>
		<g>
			<polygon style="fill:#CE7A63;" points="194.858,409.714 186.867,407.762 189.121,388.702 197.112,390.655 			"/>
			<path style="fill:#263238;" d="M195.936,404.127h-10.029c-0.336,0-0.63,0.234-0.706,0.562l-1.698,7.312
				c-0.176,0.758,0.413,1.476,1.19,1.463c3.227-0.056,5.584-0.245,9.648-0.245c2.5,0,10.038,0.26,13.491,0.26
				c3.377,0,3.938-3.414,2.528-3.724c-6.324-1.386-11.081-3.298-13.092-5.123C196.903,404.304,196.428,404.127,195.936,404.127z"/>
			<g>
				<polygon style="opacity:0.2;" points="197.113,390.66 189.119,388.707 187.822,399.682 196.075,399.682 				"/>
			</g>
			<path style="fill:#407BFF;" d="M196.492,405.27c-0.076-0.019-0.133-0.081-0.145-0.158c-0.012-0.078,0.024-0.155,0.091-0.197
				c0.302-0.187,2.974-1.819,3.877-1.35c0.14,0.072,0.311,0.227,0.328,0.551c0.023,0.436-0.116,0.782-0.413,1.03
				c-0.376,0.313-0.962,0.419-1.589,0.419C197.881,405.565,197.062,405.407,196.492,405.27z M197.06,404.995
				c1.393,0.281,2.468,0.229,2.922-0.148c0.199-0.166,0.288-0.397,0.272-0.707c-0.008-0.152-0.069-0.202-0.121-0.229
				c-0.065-0.034-0.151-0.049-0.252-0.049C199.25,403.862,197.994,404.458,197.06,404.995z"/>
			<path style="fill:#407BFF;" d="M196.432,405.243c-0.059-0.039-0.093-0.107-0.086-0.179c0.009-0.1,0.229-2.475,1.193-3.255
				c0.25-0.203,0.53-0.286,0.832-0.251c0.465,0.057,0.585,0.345,0.615,0.511c0.165,0.917-1.499,2.72-2.355,3.182
				c-0.029,0.015-0.061,0.023-0.093,0.023C196.501,405.275,196.464,405.264,196.432,405.243z M197.783,402.111
				c-0.618,0.5-0.895,1.884-0.997,2.577c0.853-0.642,1.915-2.005,1.817-2.546c-0.009-0.05-0.03-0.166-0.283-0.197
				c-0.03-0.004-0.059-0.005-0.088-0.005C198.072,401.94,197.924,401.996,197.783,402.111z"/>
		</g>
		<g>
			<g>
				<g>
					<path style="fill:#407BFF;" d="M219.674,163.752c3.541-0.028,6.504,2.679,6.8,6.207c0.156,1.861,0.309,3.587,0.392,4.276
						c0.411,3.572,3.707,18.219,4.33,21.777l0.883,4.865c0.072,0.339,8.367-0.393,8.367-0.393l3.213,3.754
						c-0.712,0.843-1.389,1.523-2.143,2.236c-0.74,0.708-1.529,1.374-2.387,2.002c-0.852,0.638-1.78,1.214-2.821,1.748
						c-1.046,0.531-2.22,0.984-3.695,1.227c-0.742,0.109-1.574,0.162-2.488,0.036c-0.911-0.124-1.913-0.438-2.825-0.967
						c-0.911-0.53-1.693-1.254-2.275-2.001c-0.59-0.748-0.989-1.515-1.286-2.232c-0.145-0.357-0.276-0.714-0.38-1.054l-0.127-0.426
						l-0.097-0.347l-0.388-1.391c-0.264-0.926-0.504-1.859-0.736-2.794c-0.923-3.741-4.47-20.906-5.031-24.732
						c-0.276-1.913-0.518-3.836-0.68-5.775c-0.083-0.97-0.157-1.942-0.216-2.924c-0.067-1.002-0.086-1.921-0.093-3.061
						L219.674,163.752z"/>
					<path style="opacity:0.6;fill:#FFFFFF;" d="M219.674,163.752c3.541-0.028,6.504,2.679,6.8,6.207
						c0.156,1.861,0.309,3.587,0.392,4.276c0.411,3.572,3.707,18.219,4.33,21.777l0.883,4.865c0.072,0.339,8.367-0.393,8.367-0.393
						l3.213,3.754c-0.712,0.843-1.389,1.523-2.143,2.236c-0.74,0.708-1.529,1.374-2.387,2.002c-0.852,0.638-1.78,1.214-2.821,1.748
						c-1.046,0.531-2.22,0.984-3.695,1.227c-0.742,0.109-1.574,0.162-2.488,0.036c-0.911-0.124-1.913-0.438-2.825-0.967
						c-0.911-0.53-1.693-1.254-2.275-2.001c-0.59-0.748-0.989-1.515-1.286-2.232c-0.145-0.357-0.276-0.714-0.38-1.054l-0.127-0.426
						l-0.097-0.347l-0.388-1.391c-0.264-0.926-0.504-1.859-0.736-2.794c-0.923-3.741-4.47-20.906-5.031-24.732
						c-0.276-1.913-0.518-3.836-0.68-5.775c-0.083-0.97-0.157-1.942-0.216-2.924c-0.067-1.002-0.086-1.921-0.093-3.061
						L219.674,163.752z"/>
					<g>
						<path style="fill:#407BFF;" d="M237.492,200.682c0,0-1.9,4.791,2.811,6.842l4.121-2.204l-2.401-5.299L237.492,200.682z"/>
						<path style="opacity:0.8;fill:#FFFFFF;" d="M237.492,200.682c0,0-1.9,4.791,2.811,6.842l4.121-2.204l-2.401-5.299
							L237.492,200.682z"/>
					</g>
					<path style="fill:#CE7A63;" d="M241.668,200.232l4.088-3.541l3.921,6.86c0,0-2.969,1.576-5.715,1.862
						c-1.622,0.169-2.291-1.274-2.813-2.627C240.814,201.917,241.051,200.929,241.668,200.232L241.668,200.232z"/>
					<polygon style="fill:#CE7A63;" points="251.236,196.489 254.221,200.533 249.677,203.551 245.756,196.691 					"/>
				</g>
				<path style="opacity:0.1;" d="M232.08,200.877l-5.279,1.182c0,0,3.064-0.507,3.852-7.211c0.041-0.35,0.032-1.478,0.104-1.1
					C231.5,197.681,232.08,200.877,232.08,200.877z"/>
				<g>
					<rect x="231.809" y="175.562" style="fill:#263238;" width="24.972" height="24.972"/>
					<rect x="231.809" y="175.562" style="opacity:0.7;fill:#FFFFFF;" width="24.972" height="24.972"/>
					<g>
						
							<rect x="256.781" y="175.562" transform="matrix(-1 -1.224647e-16 1.224647e-16 -1 524.6904 376.0953)" style="fill:#263238;" width="11.129" height="24.972"/>
						
							<rect x="256.781" y="175.562" transform="matrix(-1 -1.224647e-16 1.224647e-16 -1 524.6904 376.0953)" style="opacity:0.6;fill:#FFFFFF;" width="11.129" height="24.972"/>
					</g>
					<g>
						<rect x="233.018" y="192.145" style="opacity:0.7;fill:#FFFFFF;" width="10.557" height="6.979"/>
						<g>
							<rect x="235.169" y="193.651" style="fill:#263238;" width="0.758" height="3.972"/>
							<rect x="236.517" y="193.651" style="fill:#263238;" width="0.379" height="3.972"/>
							<rect x="237.283" y="193.651" style="fill:#263238;" width="1.049" height="3.972"/>
							<rect x="238.833" y="193.651" style="fill:#263238;" width="0.379" height="3.972"/>
							<rect x="239.802" y="193.651" style="fill:#263238;" width="0.379" height="3.972"/>
							<rect x="240.665" y="193.651" style="fill:#263238;" width="0.758" height="3.972"/>
						</g>
					</g>
					<g>
						<rect x="258.048" y="171.274" style="fill:#263238;" width="11.129" height="5.555"/>
						<rect x="258.048" y="171.274" style="opacity:0.4;fill:#FFFFFF;" width="11.129" height="5.555"/>
						<rect x="230.542" y="171.274" style="fill:#263238;" width="27.507" height="5.555"/>
						<rect x="230.542" y="171.274" style="opacity:0.5;fill:#FFFFFF;" width="27.507" height="5.555"/>
					</g>
					<g>
						<rect x="261.85" y="171.274" style="fill:#407BFF;" width="3.525" height="8.089"/>
						<rect x="261.85" y="192.444" style="fill:#407BFF;" width="3.525" height="8.089"/>
					</g>
					<g style="opacity:0.3;">
						<rect x="261.85" y="171.274" style="fill:#FFFFFF;" width="3.525" height="8.089"/>
						<rect x="261.85" y="192.444" style="fill:#FFFFFF;" width="3.525" height="8.089"/>
					</g>
				</g>
				<g>
					<g>
						<g>
							<g>
								<path style="fill:#263238;" d="M198.861,227.733l19.147,92.927l8.169,76.698l13.047-0.516c0,0,0.758-39.369-3.061-80.519
									c-3.448-37.158-10.027-77.968-11.45-90.354l-6.584-6.186l-9.607,1.57L198.861,227.733z"/>
							</g>
						</g>
					</g>
					<g>
						<g>
							<path style="fill:#263238;" d="M185.416,227.93l3.638,101.515l-3.727,67.68l14.854,0.716c0,0,4.853-32.212,7.316-70.626
								c2.484-38.726,2.582-80.91,3.184-94.167l-5.774-9.885h-9.348L185.416,227.93z"/>
						</g>
					</g>
					<path style="fill:#407BFF;" d="M224.054,214.13c-0.462-3.459-0.545-6.842-0.667-10.078
						c-1.208-32.195-1.245-32.884-1.733-38.503c-0.088-1.007-0.789-1.831-1.748-2.153c-19.715-6.625-27.756-3.39-41.91,0.176
						c-1.119,0.282-1.774,1.449-1.653,2.596c0.996,9.456,3.974,32.575,4.675,47.962c0.103,2.255,0.06,7.702,0.027,10.709
						c-0.014,1.223,0.862,2.266,2.069,2.47c5.009,0.846,17.543,2.439,21.376-1.989c0.855-0.988,2.356-1.069,3.368-0.242
						c1.567,1.281,4.134,2.429,8.221,2.143c3.889-0.273,6.447-0.608,8.083-0.892c1.421-0.247,2.319-1.661,1.959-3.057
						C225.408,220.504,224.32,216.122,224.054,214.13z"/>
					<path style="fill:#CE7A63;" d="M206.642,160.67l-5.44,3.58l-5.08,0.22l-2.97-2.61c0.21-3.05-0.15-6.08-0.47-9.12
						c-0.37-3.49-1.46-6.01-1.46-6.01l0.52,0.01l5.03,0.1l5.57,0.11c0,0-0.22,2.07-0.22,4.63v0.02c0,1.21,0.05,2.54,0.2,3.8
						c0.14,1.28,0.39,2.49,0.78,3.47C203.872,160.82,206.521,160.66,206.642,160.67z"/>
					<g>
						<g>
							<path style="fill:#407BFF;" d="M207.498,160.14c-0.035,0.686-0.721,18.338-2.18,43.411H205.3l-14.646-43.217l0.721-0.158
								l8.281,4.114h2.515l4.677-4.273l0.07,0.018L207.498,160.14z"/>
							<path style="opacity:0.5;fill:#FFFFFF;" d="M207.498,160.14c-0.035,0.686-0.721,18.338-2.18,43.411H205.3l-14.646-43.217
								l0.721-0.158l8.281,4.114h2.515l4.677-4.273l0.07,0.018L207.498,160.14z"/>
							<g>
								<polygon style="fill:#407BFF;" points="192.585,159.909 201.335,164.314 197.667,169.17 190.659,160.339 								"/>
							</g>
							<g>
								<polygon style="fill:#407BFF;" points="207.498,160.122 207.498,160.14 204.596,169.177 201.133,164.588 200.922,164.307 
									201.063,164.167 205.722,159.841 206.847,160.017 206.917,160.035 								"/>
							</g>
							<g style="opacity:0.8;">
								<polygon style="fill:#FFFFFF;" points="192.585,159.909 201.335,164.314 197.667,169.17 190.659,160.339 								"/>
							</g>
							<g style="opacity:0.8;">
								<polygon style="fill:#FFFFFF;" points="207.498,160.122 207.498,160.14 204.596,169.177 201.133,164.588 200.922,164.307 
									201.063,164.167 205.722,159.841 206.847,160.017 206.917,160.035 								"/>
							</g>
						</g>
					</g>
					<g>
						<path style="fill:#FFFFFF;" d="M202.336,171.872c0.032,0.55-0.388,1.021-0.938,1.053c-0.55,0.032-1.021-0.388-1.053-0.938
							c-0.032-0.55,0.388-1.021,0.938-1.053C201.833,170.902,202.304,171.322,202.336,171.872z"/>
						<path style="fill:#FFFFFF;" d="M204.096,185.078c0.032,0.55-0.388,1.021-0.938,1.053c-0.55,0.032-1.021-0.388-1.053-0.938
							c-0.032-0.55,0.388-1.021,0.938-1.053C203.592,184.109,204.064,184.529,204.096,185.078z"/>
					</g>
					<path style="opacity:0.2;" d="M202.322,155.4c-2.43-0.44-4.47-1.2-6.12-2.13c-1.43-0.81-2.58-1.97-3.36-3.35
						c-0.56-0.97-0.94-2.05-1.1-3.18c-0.08-0.47-0.12-0.95-0.12-1.43l5.15,1.53l4.88,1.45l0.47,3.29v0.02
						C202.122,152.81,202.171,154.14,202.322,155.4z"/>
					<g>
						<path style="fill:#CE7A63;" d="M188.058,135.794c0.79,7.341,0.974,10.456,4.866,14.055c5.856,5.423,14.698,2.836,16.117-4.585
							c1.266-6.688-0.247-17.605-7.593-20.153c-5.233-1.876-10.996,0.846-12.872,6.079
							C188.048,132.664,187.87,134.24,188.058,135.794z"/>
						<path style="fill:#263238;" d="M200.09,137.48c0.098,0.591,0.487,1.025,0.87,0.97c0.383-0.055,0.629-0.595,0.542-1.186
							c-0.087-0.59-0.487-1.025-0.87-0.97C200.249,136.349,200.034,136.913,200.09,137.48z"/>
						<path style="fill:#263238;" d="M206.787,136.455c0.097,0.602,0.487,1.025,0.87,0.97c0.382-0.055,0.629-0.595,0.542-1.186
							c-0.087-0.591-0.487-1.025-0.87-0.959C206.945,135.346,206.699,135.865,206.787,136.455z"/>
						<path style="fill:#BA4D3C;" d="M204.21,137.154c0.601,1.343,2.44,3.652,3.38,4.782c-0.602,0.466-1.377,0.648-2.123,0.499
							L204.21,137.154z"/>
						<path style="fill:#263238;" d="M197.082,136.273c0.154,0.011,0.296-0.08,0.35-0.225c0.549-1.021,1.499-1.767,2.622-2.058
							c0.191-0.047,0.308-0.239,0.263-0.43c-0.045-0.186-0.232-0.3-0.419-0.255c-0.004,0.001-0.008,0.002-0.013,0.003
							c-1.352,0.34-2.489,1.251-3.114,2.497c-0.067,0.18,0.024,0.379,0.204,0.446c0,0,0,0,0,0
							C197.008,136.268,197.045,136.276,197.082,136.273z"/>
						<path style="fill:#263238;" d="M208.369,133.331c0.128,0.006,0.25-0.056,0.322-0.162c0.105-0.164,0.06-0.381-0.102-0.49
							c-0.939-0.666-2.148-0.821-3.225-0.412c-0.173,0.068-0.258,0.263-0.19,0.435c0.003,0.008,0.007,0.017,0.011,0.025
							c0.076,0.176,0.28,0.257,0.456,0.181c0.002-0.001,0.003-0.002,0.005-0.002l0,0c0.85-0.289,1.787-0.155,2.523,0.361
							C208.228,133.309,208.298,133.331,208.369,133.331z"/>
					</g>
					<path style="fill:#263238;" d="M203.867,145.068c-2.464,0-3.842-1.536-3.904-1.608c-0.067-0.076-0.059-0.192,0.017-0.259
						c0.076-0.067,0.192-0.059,0.259,0.017c0.016,0.017,1.582,1.769,4.312,1.441c0.102-0.013,0.192,0.06,0.204,0.161
						c0.012,0.101-0.06,0.192-0.161,0.204C204.343,145.055,204.1,145.068,203.867,145.068z"/>
					<path style="fill:#263238;" d="M192.052,148.983c0,0-5.733-7.434,0.551-15.706c2.101-2.765,0.089-3.11,0.089-3.11
						c15.779-0.478,15.007-5.541,12.91-8.721c-1.21-1.835-3.204-3.055-5.396-3.208c-0.029-0.002-0.058-0.004-0.087-0.006
						c-1.73-0.104-3.219,1.223-3.402,2.947l-0.006,0.06c0,0-13.623-2.065-12.021,14.489
						C185.327,142.331,192.052,148.983,192.052,148.983z"/>
					<path style="fill:#CE7A63;" d="M186.319,141.549c0.524,1.296,1.538,2.333,2.823,2.886c1.718,0.708,2.805-0.772,2.519-2.52
						c-0.271-1.57-1.483-3.832-3.295-3.831c-1.316,0.043-2.348,1.144-2.306,2.459C186.071,140.894,186.16,141.237,186.319,141.549z"
						/>
				</g>
			</g>
			<g>
				<path style="opacity:0.6;fill:#FFFFFF;" d="M219.888,181.376l0.282,5.395l-8.898,0.464l-0.281-5.395l3.954-0.206
					c-0.281-0.196-0.263-0.601-0.285-1.03c-0.034-0.659,0.151-1.166,0.67-1.193c0.519-0.027,0.722,0.519,0.757,1.178
					c0.022,0.43,0.116,0.769-0.143,0.993L219.888,181.376z"/>
				<path style="fill:#FFFFFF;" d="M218.937,186.21l-6.585,0.344c-0.36,0.019-0.668-0.258-0.687-0.618l-0.156-2.996
					c-0.019-0.36,0.258-0.668,0.618-0.687l6.585-0.344c0.36-0.019,0.668,0.258,0.687,0.618l0.156,2.996
					C219.574,185.884,219.298,186.191,218.937,186.21z"/>
				<path style="fill:#263238;" d="M215.696,180.155c0.01,0.192-0.138,0.357-0.33,0.367c-0.193,0.01-0.357-0.138-0.367-0.33
					c-0.01-0.192,0.138-0.357,0.33-0.367C215.522,179.815,215.686,179.963,215.696,180.155z"/>
			</g>
			<polygon style="opacity:0.2;" points="180.434,185.829 180.023,201.059 177.842,179.889 			"/>
			<g>
				<g>
					<polygon style="fill:#FFFFFF;" points="216.097,200.018 215.398,211.16 216.657,212.07 209.763,213.178 212.593,199.799 					
						"/>
					<path style="opacity:0.5;" d="M212.593,199.799l3.504,0.219l-0.121,1.921c-1.384,0.155-2.692,0.206-3.87,0.16L212.593,199.799z
						"/>
					<path style="fill:#263238;" d="M216.155,193.735c1.992-0.32,6.018-0.425,7.645-0.349l0.938,5.838
						c-1.522,0.582-5.486,1.073-7.477,1.393c-5.673,0.912-10.52,0.111-10.826-1.789C206.13,196.927,210.482,194.647,216.155,193.735
						z"/>
					<path style="fill:#FFFFFF;" d="M216.155,193.735c1.992-0.32,6.018-0.425,7.645-0.349l0.938,5.838
						c-1.522,0.582-5.486,1.073-7.477,1.393c-5.673,0.912-10.52,0.111-10.826-1.789C206.13,196.927,210.482,194.647,216.155,193.735
						z"/>
					<path style="fill:#263238;" d="M222.863,193.369c0.318,0.001,0.636,0.003,0.937,0.017l0.938,5.838
						c-0.281,0.108-0.583,0.208-0.885,0.309L222.863,193.369z"/>
				</g>
				<path style="fill:#CE7A63;" d="M204.76,204.921c0,0,4.535-1.214,6.573-1.797c5.716-1.635,5.934,1.15,6.072,2.093
					c0.203,1.387,0.054,3.38-1.967,4.68c-1.776,1.142-10.599-0.206-10.599-0.206L204.76,204.921z"/>
				<g>
					<g>
						<path style="fill:#407BFF;" d="M198.92,204.899c0,0,3.895-1.21,6.827-0.875c0,0-1.494,3.822,0.74,6.667l-6.908,0.899
							L198.92,204.899z"/>
					</g>
					<path style="opacity:0.8;fill:#FFFFFF;" d="M198.92,204.899c0,0,3.895-1.21,6.827-0.875c0,0-1.494,3.822,0.74,6.667
						l-6.908,0.899L198.92,204.899z"/>
				</g>
				<path style="fill:#407BFF;" d="M178.085,163.995c0,0-9.743,0-9.414,32.494c0.216,21.378,7.658,17.492,17.212,16.88l16.802-1.573
					c0,0-1.723-4.596-0.297-8.288c0,0-8.282,1.628-21.829,0.043c0,0-1.917-15.896-0.245-19.12
					C180.314,184.431,182.39,169.985,178.085,163.995z"/>
				<path style="opacity:0.6;fill:#FFFFFF;" d="M178.085,163.995c0,0-9.743,0-9.414,32.494c0.216,21.378,7.658,17.492,17.212,16.88
					l16.802-1.573c0,0-1.723-4.596-0.297-8.288c0,0-8.282,1.628-21.829,0.043c0,0-1.917-15.896-0.245-19.12
					C180.314,184.431,182.39,169.985,178.085,163.995z"/>
			</g>
			<polygon style="opacity:0.1;" points="213.267,299.454 210.682,254.196 208.072,276.825 			"/>
		</g>
	</g>
</g>
<g id="Counter">
	<g>
		<g>
			<g>
				<g>
					<rect x="164.098" y="269.273" style="fill:#407BFF;" width="220.085" height="144.506"/>
				</g>
				<g style="opacity:0.4;">
					<rect x="164.098" y="269.273" style="fill:#FFFFFF;" width="220.085" height="144.506"/>
				</g>
			</g>
			<path style="fill:#407BFF;" d="M385.219,280.434H162.532c-1.374,0-2.487-1.113-2.487-2.487v-7.397
				c0-1.374,1.113-2.487,2.487-2.487h222.686c1.374,0,2.487,1.113,2.487,2.487v7.397
				C387.706,279.32,386.592,280.434,385.219,280.434z"/>
		</g>
		<g>
			<g>
				<g>
					<polygon style="fill:#407BFF;" points="278.56,248.424 327.733,248.424 331.245,208.277 282.073,208.277 					"/>
					<polygon style="opacity:0.2;" points="283.374,248.424 327.788,248.424 330.96,212.162 286.546,212.162 					"/>
				</g>
				<g>
					<g>
						<g>
							<polygon style="fill:#263238;" points="299.989,253.737 314.479,253.737 314.479,239.067 299.947,239.067 							"/>
							
								<rect x="299.947" y="224.128" transform="matrix(-1 -1.224647e-16 1.224647e-16 -1 614.4267 463.1954)" style="fill:#263238;" width="14.532" height="14.938"/>
							
								<rect x="299.947" y="224.128" transform="matrix(-1 -1.224647e-16 1.224647e-16 -1 614.4267 463.1954)" style="opacity:0.1;fill:#FFFFFF;" width="14.532" height="14.938"/>
						</g>
					</g>
					<path style="opacity:0.2;fill:#FFFFFF;" d="M312.717,224.128h-10.722c-0.806,0-1.46,0.282-1.46,0.63
						c0,0.348,0.654,0.629,1.46,0.629h10.722c0.806,0,1.46-0.282,1.46-0.629C314.177,224.41,313.523,224.128,312.717,224.128z"/>
					<g>
						<polygon style="fill:#407BFF;" points="268.641,267.757 334.715,267.757 334.715,253.737 282.57,253.737 268.641,260.917 
													"/>
						
							<rect x="282.57" y="253.737" transform="matrix(-1 -1.224647e-16 1.224647e-16 -1 617.2851 521.4941)" style="opacity:0.2;" width="52.145" height="14.02"/>
					</g>
				</g>
			</g>
			<g>
				<polygon style="fill:#407BFF;" points="320.251,216.23 326.13,216.23 328.335,191.034 322.456,191.034 				"/>
				<polygon style="opacity:0.2;" points="320.251,216.23 326.13,216.23 328.335,191.034 322.456,191.034 				"/>
			</g>
			<g>
				<g>
					<polygon style="fill:#407BFF;" points="300.974,196.904 342.958,196.522 344.365,180.443 302.381,180.825 					"/>
					<polygon style="fill:#263238;" points="303.78,193.87 340.329,193.87 341.347,182.232 304.763,182.633 					"/>
				</g>
				<g>
					<g>
						<polygon style="fill:#407BFF;" points="344.365,180.443 342.958,196.522 345.504,194.976 346.416,183.285 						"/>
					</g>
					<g style="opacity:0.2;">
						<polygon points="344.365,180.443 342.958,196.522 345.504,194.976 346.416,183.285 						"/>
					</g>
				</g>
			</g>
		</g>
	</g>
</g>
<g id="Plant">
	<g>
		<g>
			<g>
				<path style="fill:#407BFF;" d="M167.68,359.285c0,0,35.446-45.004-2.933-5.477c0,0,7.29-43.818-6.919,1.742
					c0,0-9.597-42.362-6.148,6.237c0,0-17.579-40.771-2.403,9.565c0,0,58.654,17.888,14.598-0.232c0,0,60.079-3.28,4.678-5.316
					C168.553,365.805,228.829,337.843,167.68,359.285z"/>
				<path style="opacity:0.1;" d="M167.68,359.285c0,0,35.446-45.004-2.933-5.477c0,0,7.29-43.818-6.919,1.742
					c0,0-9.597-42.362-6.148,6.237c0,0-17.579-40.771-2.403,9.565c0,0,58.654,17.888,14.598-0.232c0,0,60.079-3.28,4.678-5.316
					C168.553,365.805,228.829,337.843,167.68,359.285z"/>
			</g>
			<path style="fill:none;stroke:#263238;stroke-width:0.75;stroke-linecap:round;stroke-linejoin:round;stroke-miterlimit:10;" d="
				M152.977,367.344c-5.939,5.222-12.878,12.881-15.758,21.973"/>
		</g>
		
			<path style="fill:#263238;stroke:#263238;stroke-width:0.75;stroke-linecap:round;stroke-linejoin:round;stroke-miterlimit:10;" d="
			M112.992,385.045h40.69c0.669,0,1.212,0.88,1.212,1.965c0,1.085-0.542,1.965-1.212,1.965h-0.878l-2.816,17.064
			c-0.666,4.037-2.922,6.845-5.499,6.845h-22.304c-2.577,0-4.833-2.808-5.499-6.845l-2.815-17.064h-0.878
			c-0.669,0-1.212-0.879-1.212-1.965C111.78,385.924,112.322,385.045,112.992,385.045z"/>
		<g>
			<path style="fill:#407BFF;" d="M146.68,346.524c0,0,21.386-64.326-5.464-4.919c0,0-9.478-51.701-7.002,4.717
				c0,0-27.691-43.3-4.34,9.411c0,0-35.937-38.325,1.166,11.612c0,0,72.47-3.638,16.156-6.119c0,0,65.557-27.772,3.073-7.796
				C150.27,353.43,206.136,298.105,146.68,346.524z"/>
			<path style="fill:none;stroke:#263238;stroke-width:0.75;stroke-linecap:round;stroke-linejoin:round;stroke-miterlimit:10;" d="
				M142.123,347.95c0,0-14.421,20.312-19.613,41.367"/>
		</g>
		<g>
			<g>
				<path style="fill:#407BFF;" d="M110.982,349.535c0,0-50.432-39.721-6.138,3.287c0,0-49.103-8.169,1.952,7.754
					c0,0-47.471,10.754,6.989,6.89c0,0-45.689,19.699,10.719,2.693c0,0,20.045-65.727-0.26-16.359c0,0-3.675-67.324-5.957-5.242
					C118.287,348.556,86.953,281.011,110.982,349.535z"/>
				<path style="opacity:0.3;fill:#FFFFFF;" d="M110.982,349.535c0,0-50.432-39.721-6.138,3.287c0,0-49.103-8.169,1.952,7.754
					c0,0-47.471,10.754,6.989,6.89c0,0-45.689,19.699,10.719,2.693c0,0,20.045-65.727-0.26-16.359c0,0-3.675-67.324-5.957-5.242
					C118.287,348.556,86.953,281.011,110.982,349.535z"/>
			</g>
			<path style="fill:none;stroke:#263238;stroke-width:0.75;stroke-linecap:round;stroke-linejoin:round;stroke-miterlimit:10;" d="
				M134.784,392.201c-9.069-30.284-25.051-37.642-25.051-37.642"/>
		</g>
	</g>
</g>
</svg>
