<svg width="500" height="500" viewBox="0 0 500 500" fill="none" xmlns="http://www.w3.org/2000/svg">
<path d="M449.901 398.494H416.779V398.744H449.901V398.494Z" fill="#EBEBEB"/>
<path d="M331.22 401.208H322.527V401.458H331.22V401.208Z" fill="#EBEBEB"/>
<path d="M415.778 389.208H396.586V389.458H415.778V389.208Z" fill="#EBEBEB"/>
<path d="M95.652 390.888H52.459V391.138H95.652V390.888Z" fill="#EBEBEB"/>
<path d="M110.889 390.888H104.556V391.138H110.889V390.888Z" fill="#EBEBEB"/>
<path d="M225.147 395.111H131.471V395.361H225.147V395.111Z" fill="#EBEBEB"/>
<path d="M500 382.398H0V382.648H500V382.398Z" fill="#EBEBEB"/>
<path d="M160.045 115.55H47.783V382.006H160.045V115.55Z" fill="#E6E6E6"/>
<path d="M155.271 120.376H52.557V382.006H155.271V120.376Z" fill="#F0F0F0"/>
<path d="M148.046 154.89H60.328V250.706H148.046V154.89Z" fill="#FAFAFA"/>
<path d="M148.046 279.685H60.328V375.501H148.046V279.685Z" fill="#E6E6E6"/>
<path d="M148.046 149.934H60.328V144.602C60.328 135.058 68.065 127.321 77.609 127.321H130.765C140.309 127.321 148.046 135.058 148.046 144.602V149.934Z" fill="#FAFAFA"/>
<path d="M67.817 255.021H60.328V274.536H67.817V255.021Z" fill="#E6E6E6"/>
<path d="M67.8176 274.536H69.2886V255.021H67.8176V274.536Z" fill="#E0E0E0"/>
<path d="M65.344 262.687C65.344 264.431 63.93 265.845 62.186 265.845C60.442 265.845 59.028 264.431 59.028 262.687C59.028 260.943 60.442 259.529 62.186 259.529C63.93 259.529 65.344 260.943 65.344 262.687Z" fill="#E0E0E0"/>
<path d="M64.742 268.147H63.115V272.097H64.742V268.147Z" fill="#E0E0E0"/>
<path d="M63.813 262.687C63.813 265.125 61.837 267.101 59.399 267.101C56.961 267.101 54.985 265.125 54.985 262.687C54.985 260.249 56.961 258.273 59.399 258.273C61.837 258.273 63.813 260.25 63.813 262.687Z" fill="#F5F5F5"/>
<path d="M91.188 127.321H86.171L81.365 149.934H86.382L91.188 127.321Z" fill="#F5F5F5"/>
<path d="M146.968 137.633C146.127 135.442 144.828 133.48 143.175 131.873L139.336 149.934H144.353L146.968 137.633Z" fill="#F5F5F5"/>
<path d="M136.566 127.993C135.114 127.561 133.579 127.321 131.987 127.321H113.477L108.67 149.934H131.902L136.566 127.993Z" fill="#F5F5F5"/>
<path d="M85.328 154.89H80.311L60.328 248.902V250.706H64.962L85.328 154.89Z" fill="#F5F5F5"/>
<path d="M130.849 154.89H107.617L87.25 250.706H110.482L130.849 154.89Z" fill="#F5F5F5"/>
<path d="M143.3 154.89H138.283L117.917 250.706H122.934L143.3 154.89Z" fill="#F5F5F5"/>
<path d="M422.548 73.563H421.567V102.634H422.548V73.563Z" fill="#E6E6E6"/>
<path d="M453.121 118.788L422.057 100.015L390.994 118.788H453.121Z" fill="#E6E6E6"/>
<path d="M419.913 118.788L422.057 100.015L408.094 118.788H419.913Z" fill="#FAFAFA"/>
<path d="M424.201 302.166H396.281C395.552 302.166 394.962 301.575 394.962 300.847V295.285C394.962 294.557 395.552 293.966 396.281 293.966H424.201C424.929 293.966 425.52 294.557 425.52 295.285V300.847C425.52 301.576 424.929 302.166 424.201 302.166Z" fill="#F5F5F5"/>
<path d="M424.201 322.511H396.281C395.552 322.511 394.962 321.92 394.962 321.192V315.63C394.962 314.902 395.552 314.311 396.281 314.311H424.201C424.929 314.311 425.52 314.902 425.52 315.63V321.192C425.52 321.92 424.929 322.511 424.201 322.511Z" fill="#F5F5F5"/>
<path d="M446.853 312.328H418.933C418.205 312.328 417.614 311.737 417.614 311.009V305.447C417.614 304.719 418.205 304.128 418.933 304.128H446.853C447.582 304.128 448.172 304.719 448.172 305.447V311.009C448.172 311.737 447.582 312.328 446.853 312.328Z" fill="#F0F0F0"/>
<path d="M374.346 217.243H403.263C403.991 217.243 404.582 217.833 404.582 218.562V224.392C404.582 225.121 403.991 225.711 403.263 225.711H374.346C373.618 225.711 373.027 225.121 373.027 224.392V218.562C373.027 217.833 373.618 217.243 374.346 217.243Z" fill="#F5F5F5"/>
<path d="M383.982 206.749H412.899C413.627 206.749 414.218 207.339 414.218 208.068V213.898C414.218 214.626 413.627 215.217 412.899 215.217H383.982C383.253 215.217 382.663 214.626 382.663 213.898V208.068C382.663 207.34 383.253 206.749 383.982 206.749Z" fill="#F5F5F5"/>
<path d="M350.955 206.749H379.872C380.6 206.749 381.191 207.339 381.191 208.068V213.898C381.191 214.626 380.6 215.217 379.872 215.217H350.955C350.226 215.217 349.636 214.626 349.636 213.898V208.068C349.636 207.34 350.226 206.749 350.955 206.749Z" fill="#F0F0F0"/>
<path d="M250 423.714C357.082 423.714 443.889 418.645 443.889 412.391C443.889 406.137 357.082 401.068 250 401.068C142.918 401.068 56.111 406.137 56.111 412.391C56.111 418.645 142.918 423.714 250 423.714Z" fill="#F5F5F5"/>
<path d="M230.977 73.406H227.942V149.272H230.977V73.406Z" fill="white"/>
<path d="M234.011 73.406H232.494V149.272H234.011V73.406Z" fill="white"/>
<path d="M238.563 73.406H237.046V149.272H238.563V73.406Z" fill="white"/>
<path d="M247.668 73.406H244.633V149.272H247.668V73.406Z" fill="white"/>
<path d="M252.219 73.406H250.702V149.272H252.219V73.406Z" fill="white"/>
<path d="M258.289 73.406H253.737V149.272H258.289V73.406Z" fill="white"/>
<path d="M262.84 73.406H261.323V149.272H262.84V73.406Z" fill="white"/>
<path d="M265.875 73.406H264.358V149.272H265.875V73.406Z" fill="white"/>
<path d="M273.462 73.406H270.427V149.272H273.462V73.406Z" fill="white"/>
<path d="M281.049 73.406H278.014V149.272H281.049V73.406Z" fill="white"/>
<path d="M287.118 73.406H282.566V149.272H287.118V73.406Z" fill="white"/>
<path d="M291.669 73.406H290.152V149.272H291.669V73.406Z" fill="white"/>
<path d="M297.739 73.406H294.704V149.272H297.739V73.406Z" fill="white"/>
<path d="M305.325 73.406H300.773V149.272H305.325V73.406Z" fill="white"/>
<path d="M308.36 73.406H306.843V149.272H308.36V73.406Z" fill="white"/>
<path d="M315.947 73.406H311.395V149.272H315.947V73.406Z" fill="white"/>
<path d="M320.499 73.406H317.464V149.272H320.499V73.406Z" fill="white"/>
<path d="M326.568 73.406H322.016V149.272H326.568V73.406Z" fill="white"/>
<path d="M329.602 73.406H328.085V149.272H329.602V73.406Z" fill="white"/>
<path d="M335.672 73.406H334.155V149.272H335.672V73.406Z" fill="white"/>
<path d="M340.224 73.406H337.189V149.272H340.224V73.406Z" fill="white"/>
<path d="M347.811 73.406H344.776V149.272H347.811V73.406Z" fill="white"/>
<path d="M353.879 73.406H352.362V149.272H353.879V73.406Z" fill="white"/>
<path d="M359.949 73.406H358.432V149.272H359.949V73.406Z" fill="white"/>
<path d="M364.501 73.406H361.466V149.272H364.501V73.406Z" fill="white"/>
<path d="M373.605 73.406H369.053V149.272H373.605V73.406Z" fill="white"/>
<path d="M376.639 73.406H375.122V149.272H376.639V73.406Z" fill="white"/>
<path d="M381.192 73.406H378.157V149.272H381.192V73.406Z" fill="white"/>
<path d="M282.92 162V155.455H283.892V156.477H283.977C284.114 156.128 284.334 155.857 284.638 155.663C284.942 155.467 285.307 155.369 285.733 155.369C286.165 155.369 286.524 155.467 286.811 155.663C287.101 155.857 287.327 156.128 287.489 156.477H287.557C287.724 156.139 287.976 155.871 288.311 155.672C288.646 155.47 289.048 155.369 289.517 155.369C290.102 155.369 290.581 155.553 290.953 155.919C291.325 156.283 291.511 156.849 291.511 157.619V162H290.506V157.619C290.506 157.136 290.374 156.791 290.109 156.584C289.845 156.376 289.534 156.273 289.176 156.273C288.716 156.273 288.359 156.412 288.107 156.69C287.854 156.966 287.727 157.315 287.727 157.739V162H286.705V157.517C286.705 157.145 286.584 156.845 286.342 156.618C286.101 156.388 285.79 156.273 285.409 156.273C285.148 156.273 284.903 156.342 284.676 156.482C284.452 156.621 284.27 156.814 284.131 157.061C283.994 157.305 283.926 157.588 283.926 157.909V162H282.92ZM296.18 162H293.487V153.273H296.299C297.146 153.273 297.87 153.447 298.472 153.797C299.075 154.143 299.536 154.642 299.857 155.293C300.178 155.94 300.339 156.716 300.339 157.619C300.339 158.528 300.177 159.311 299.853 159.967C299.529 160.621 299.058 161.124 298.438 161.476C297.819 161.825 297.066 162 296.18 162ZM294.543 161.062H296.112C296.833 161.062 297.431 160.923 297.906 160.645C298.38 160.366 298.734 159.97 298.967 159.456C299.2 158.942 299.316 158.33 299.316 157.619C299.316 156.915 299.201 156.308 298.971 155.8C298.741 155.288 298.397 154.896 297.94 154.624C297.482 154.348 296.913 154.21 296.231 154.21H294.543V161.062ZM304.634 162.136C304.043 162.136 303.525 161.996 303.079 161.714C302.636 161.433 302.289 161.04 302.039 160.534C301.792 160.028 301.668 159.437 301.668 158.761C301.668 158.08 301.792 157.484 302.039 156.976C302.289 156.467 302.636 156.072 303.079 155.791C303.525 155.51 304.043 155.369 304.634 155.369C305.225 155.369 305.742 155.51 306.185 155.791C306.631 156.072 306.978 156.467 307.225 156.976C307.475 157.484 307.6 158.08 307.6 158.761C307.6 159.437 307.475 160.028 307.225 160.534C306.978 161.04 306.631 161.433 306.185 161.714C305.742 161.996 305.225 162.136 304.634 162.136ZM304.634 161.233C305.083 161.233 305.452 161.118 305.742 160.888C306.032 160.658 306.246 160.355 306.386 159.98C306.525 159.605 306.594 159.199 306.594 158.761C306.594 158.324 306.525 157.916 306.386 157.538C306.246 157.161 306.032 156.855 305.742 156.622C305.452 156.389 305.083 156.273 304.634 156.273C304.185 156.273 303.816 156.389 303.526 156.622C303.237 156.855 303.022 157.161 302.883 157.538C302.744 157.916 302.674 158.324 302.674 158.761C302.674 159.199 302.744 159.605 302.883 159.98C303.022 160.355 303.237 160.658 303.526 160.888C303.816 161.118 304.185 161.233 304.634 161.233ZM310.073 159.614L310.056 158.369H310.26L313.124 155.455H314.368L311.317 158.54H311.232L310.073 159.614ZM309.135 162V153.273H310.141V162H309.135ZM313.294 162L310.738 158.761L311.453 158.062L314.573 162H313.294ZM318.052 162.136C317.461 162.136 316.943 161.996 316.497 161.714C316.054 161.433 315.707 161.04 315.457 160.534C315.21 160.028 315.086 159.437 315.086 158.761C315.086 158.08 315.21 157.484 315.457 156.976C315.707 156.467 316.054 156.072 316.497 155.791C316.943 155.51 317.461 155.369 318.052 155.369C318.643 155.369 319.16 155.51 319.603 155.791C320.049 156.072 320.396 156.467 320.643 156.976C320.893 157.484 321.018 158.08 321.018 158.761C321.018 159.437 320.893 160.028 320.643 160.534C320.396 161.04 320.049 161.433 319.603 161.714C319.16 161.996 318.643 162.136 318.052 162.136ZM318.052 161.233C318.501 161.233 318.87 161.118 319.16 160.888C319.45 160.658 319.664 160.355 319.804 159.98C319.943 159.605 320.012 159.199 320.012 158.761C320.012 158.324 319.943 157.916 319.804 157.538C319.664 157.161 319.45 156.855 319.16 156.622C318.87 156.389 318.501 156.273 318.052 156.273C317.603 156.273 317.234 156.389 316.944 156.622C316.654 156.855 316.44 157.161 316.301 157.538C316.162 157.916 316.092 158.324 316.092 158.761C316.092 159.199 316.162 159.605 316.301 159.98C316.44 160.355 316.654 160.658 316.944 160.888C317.234 161.118 317.603 161.233 318.052 161.233ZM323.559 158.062V162H322.553V155.455H323.525V156.477H323.61C323.763 156.145 323.996 155.878 324.309 155.676C324.621 155.472 325.025 155.369 325.519 155.369C325.962 155.369 326.35 155.46 326.683 155.642C327.015 155.821 327.273 156.094 327.458 156.46C327.643 156.824 327.735 157.284 327.735 157.841V162H326.729V157.909C326.729 157.395 326.596 156.994 326.329 156.707C326.062 156.418 325.695 156.273 325.229 156.273C324.908 156.273 324.621 156.342 324.369 156.482C324.119 156.621 323.921 156.824 323.776 157.091C323.631 157.358 323.559 157.682 323.559 158.062Z" fill="white"/>
<path d="M237.456 409.023L229.244 408.547L228.016 389.393L236.229 389.87L237.456 409.023Z" fill="#CE7A63"/>
<path d="M238.483 404.127H228.454C228.118 404.127 227.824 404.361 227.748 404.689L226.05 412.001C225.874 412.759 226.463 413.477 227.24 413.464C230.467 413.408 232.824 413.219 236.888 413.219C239.388 413.219 246.926 413.479 250.379 413.479C253.756 413.479 254.317 410.065 252.907 409.755C246.583 408.369 241.826 406.457 239.815 404.632C239.45 404.304 238.975 404.127 238.483 404.127Z" fill="#263238"/>
<path opacity="0.2" d="M236.231 389.875L228.015 389.398L228.652 399.271L236.868 399.348L236.231 389.875Z" fill="black"/>
<path d="M239.039 405.27C238.963 405.251 238.906 405.189 238.894 405.112C238.882 405.034 238.918 404.957 238.985 404.915C239.286 404.728 241.959 403.096 242.862 403.565C243.002 403.637 243.173 403.792 243.19 404.116C243.213 404.552 243.074 404.898 242.777 405.146C242.401 405.459 241.815 405.565 241.188 405.565C240.428 405.565 239.609 405.407 239.039 405.27ZM239.607 404.995C241 405.276 242.075 405.224 242.529 404.847C242.728 404.681 242.817 404.45 242.801 404.14C242.793 403.988 242.732 403.938 242.68 403.911C242.615 403.877 242.529 403.862 242.428 403.862C241.797 403.862 240.541 404.458 239.607 404.995Z" fill="#407BFF"/>
<path d="M238.979 405.243C238.919 405.204 238.886 405.136 238.893 405.064C238.902 404.964 239.122 402.589 240.086 401.809C240.336 401.606 240.616 401.523 240.918 401.558C241.383 401.615 241.503 401.903 241.533 402.069C241.698 402.986 240.034 404.789 239.178 405.251C239.149 405.266 239.117 405.274 239.085 405.274C239.048 405.275 239.011 405.264 238.979 405.243ZM240.329 402.111C239.711 402.611 239.434 403.995 239.332 404.688C240.185 404.046 241.247 402.683 241.149 402.142C241.14 402.092 241.119 401.976 240.866 401.945C240.836 401.941 240.807 401.94 240.778 401.94C240.618 401.94 240.471 401.996 240.329 402.111Z" fill="#407BFF"/>
<path d="M194.858 409.714L186.867 407.762L189.121 388.702L197.112 390.655L194.858 409.714Z" fill="#CE7A63"/>
<path d="M195.936 404.127H185.907C185.571 404.127 185.277 404.361 185.201 404.689L183.503 412.001C183.327 412.759 183.916 413.477 184.693 413.464C187.92 413.408 190.277 413.219 194.341 413.219C196.841 413.219 204.379 413.479 207.832 413.479C211.209 413.479 211.77 410.065 210.36 409.755C204.036 408.369 199.279 406.457 197.268 404.632C196.903 404.304 196.428 404.127 195.936 404.127Z" fill="#263238"/>
<path opacity="0.2" d="M197.113 390.66L189.119 388.707L187.822 399.682H196.075L197.113 390.66Z" fill="black"/>
<path d="M196.492 405.27C196.416 405.251 196.359 405.189 196.347 405.112C196.335 405.034 196.371 404.957 196.438 404.915C196.74 404.728 199.412 403.096 200.315 403.565C200.455 403.637 200.626 403.792 200.643 404.116C200.666 404.552 200.527 404.898 200.23 405.146C199.854 405.459 199.268 405.565 198.641 405.565C197.881 405.565 197.062 405.407 196.492 405.27ZM197.06 404.995C198.453 405.276 199.528 405.224 199.982 404.847C200.181 404.681 200.27 404.45 200.254 404.14C200.246 403.988 200.185 403.938 200.133 403.911C200.068 403.877 199.982 403.862 199.881 403.862C199.25 403.862 197.994 404.458 197.06 404.995Z" fill="#407BFF"/>
<path d="M196.432 405.243C196.373 405.204 196.339 405.136 196.346 405.064C196.355 404.964 196.575 402.589 197.539 401.809C197.789 401.606 198.069 401.523 198.371 401.558C198.836 401.615 198.956 401.903 198.986 402.069C199.151 402.986 197.487 404.789 196.631 405.251C196.602 405.266 196.57 405.274 196.538 405.274C196.501 405.275 196.464 405.264 196.432 405.243ZM197.783 402.111C197.165 402.611 196.888 403.995 196.786 404.688C197.639 404.046 198.701 402.683 198.603 402.142C198.594 402.092 198.573 401.976 198.32 401.945C198.29 401.941 198.261 401.94 198.232 401.94C198.072 401.94 197.924 401.996 197.783 402.111Z" fill="#407BFF"/>
<path d="M219.674 163.752C223.215 163.724 226.178 166.431 226.474 169.959C226.63 171.82 226.783 173.546 226.866 174.235C227.277 177.807 230.573 192.454 231.196 196.012L232.079 200.877C232.151 201.216 240.446 200.484 240.446 200.484L243.659 204.238C242.947 205.081 242.27 205.761 241.516 206.474C240.776 207.182 239.987 207.848 239.129 208.476C238.277 209.114 237.349 209.69 236.308 210.224C235.262 210.755 234.088 211.208 232.613 211.451C231.871 211.56 231.039 211.613 230.125 211.487C229.214 211.363 228.212 211.049 227.3 210.52C226.389 209.99 225.607 209.266 225.025 208.519C224.435 207.771 224.036 207.004 223.739 206.287C223.594 205.93 223.463 205.573 223.359 205.233L223.232 204.807L223.135 204.46L222.747 203.069C222.483 202.143 222.243 201.21 222.011 200.275C221.088 196.534 217.541 179.369 216.98 175.543C216.704 173.63 216.462 171.707 216.3 169.768C216.217 168.798 216.143 167.826 216.084 166.844C216.017 165.842 215.998 164.923 215.991 163.783L219.674 163.752Z" fill="#407BFF"/>
<path opacity="0.6" d="M219.674 163.752C223.215 163.724 226.178 166.431 226.474 169.959C226.63 171.82 226.783 173.546 226.866 174.235C227.277 177.807 230.573 192.454 231.196 196.012L232.079 200.877C232.151 201.216 240.446 200.484 240.446 200.484L243.659 204.238C242.947 205.081 242.27 205.761 241.516 206.474C240.776 207.182 239.987 207.848 239.129 208.476C238.277 209.114 237.349 209.69 236.308 210.224C235.262 210.755 234.088 211.208 232.613 211.451C231.871 211.56 231.039 211.613 230.125 211.487C229.214 211.363 228.212 211.049 227.3 210.52C226.389 209.99 225.607 209.266 225.025 208.519C224.435 207.771 224.036 207.004 223.739 206.287C223.594 205.93 223.463 205.573 223.359 205.233L223.232 204.807L223.135 204.46L222.747 203.069C222.483 202.143 222.243 201.21 222.011 200.275C221.088 196.534 217.541 179.369 216.98 175.543C216.704 173.63 216.462 171.707 216.3 169.768C216.217 168.798 216.143 167.826 216.084 166.844C216.017 165.842 215.998 164.923 215.991 163.783L219.674 163.752Z" fill="white"/>
<path d="M237.492 200.682C237.492 200.682 235.592 205.473 240.303 207.524L244.424 205.32L242.023 200.021L237.492 200.682Z" fill="#407BFF"/>
<path opacity="0.8" d="M237.492 200.682C237.492 200.682 235.592 205.473 240.303 207.524L244.424 205.32L242.023 200.021L237.492 200.682Z" fill="white"/>
<path d="M241.668 200.232L245.756 196.691L249.677 203.551C249.677 203.551 246.708 205.127 243.962 205.413C242.34 205.582 241.671 204.139 241.149 202.786C240.814 201.917 241.051 200.929 241.668 200.232Z" fill="#CE7A63"/>
<path d="M251.236 196.489L254.221 200.533L249.677 203.551L245.756 196.691L251.236 196.489Z" fill="#CE7A63"/>
<path opacity="0.1" d="M232.08 200.877L226.801 202.059C226.801 202.059 229.865 201.552 230.653 194.848C230.694 194.498 230.685 193.37 230.757 193.748C231.5 197.681 232.08 200.877 232.08 200.877Z" fill="black"/>
<path d="M256.781 175.562H231.809V200.534H256.781V175.562Z" fill="#263238"/>
<path opacity="0.7" d="M256.781 175.562H231.809V200.534H256.781V175.562Z" fill="white"/>
<path d="M256.78 200.533H267.909V175.561H256.78V200.533Z" fill="#263238"/>
<path opacity="0.6" d="M256.78 200.533H267.909V175.561H256.78V200.533Z" fill="white"/>
<path opacity="0.7" d="M243.575 192.145H233.018V199.124H243.575V192.145Z" fill="white"/>
<path d="M235.927 193.651H235.169V197.623H235.927V193.651Z" fill="#263238"/>
<path d="M236.896 193.651H236.517V197.623H236.896V193.651Z" fill="#263238"/>
<path d="M238.332 193.651H237.283V197.623H238.332V193.651Z" fill="#263238"/>
<path d="M239.212 193.651H238.833V197.623H239.212V193.651Z" fill="#263238"/>
<path d="M240.181 193.651H239.802V197.623H240.181V193.651Z" fill="#263238"/>
<path d="M241.423 193.651H240.665V197.623H241.423V193.651Z" fill="#263238"/>
<path d="M269.177 171.274H258.048V176.829H269.177V171.274Z" fill="#263238"/>
<path opacity="0.4" d="M269.177 171.274H258.048V176.829H269.177V171.274Z" fill="white"/>
<path d="M258.049 171.274H230.542V176.829H258.049V171.274Z" fill="#263238"/>
<path opacity="0.5" d="M258.049 171.274H230.542V176.829H258.049V171.274Z" fill="white"/>
<path d="M265.375 171.274H261.85V179.363H265.375V171.274Z" fill="#407BFF"/>
<path d="M265.375 192.444H261.85V200.533H265.375V192.444Z" fill="#407BFF"/>
<g opacity="0.3">
<path d="M265.375 171.274H261.85V179.363H265.375V171.274Z" fill="white"/>
<path d="M265.375 192.444H261.85V200.533H265.375V192.444Z" fill="white"/>
</g>
<path d="M198.861 227.733L218.008 320.66L226.177 397.358L239.224 396.842C239.224 396.842 239.982 357.473 236.163 316.323C232.715 279.165 226.136 238.355 224.713 225.969L218.129 219.783L208.522 221.353L198.861 227.733Z" fill="#263238"/>
<path d="M185.416 227.93L189.054 329.445L185.327 397.125L200.181 397.841C200.181 397.841 205.034 365.629 207.497 327.215C209.981 288.489 210.079 246.305 210.681 233.048L204.907 223.163H195.559L185.416 227.93Z" fill="#263238"/>
<path d="M224.054 214.13C223.592 210.671 223.509 207.288 223.387 204.052C222.179 171.857 222.142 171.168 221.654 165.549C221.566 164.542 220.865 163.718 219.906 163.396C200.191 156.771 192.15 160.006 177.996 163.572C176.877 163.854 176.222 165.021 176.343 166.168C177.339 175.624 180.317 198.743 181.018 214.13C181.121 216.385 181.078 221.832 181.045 224.839C181.031 226.062 181.907 227.105 183.114 227.309C188.123 228.155 200.657 229.748 204.49 225.32C205.345 224.332 206.846 224.251 207.858 225.078C209.425 226.359 211.992 227.507 216.079 227.221C219.968 226.948 222.526 226.613 224.162 226.329C225.583 226.082 226.481 224.668 226.121 223.272C225.408 220.504 224.32 216.122 224.054 214.13Z" fill="#407BFF"/>
<path d="M206.642 160.67L201.202 164.25L196.122 164.47L193.152 161.86C193.362 158.81 193.002 155.78 192.682 152.74C192.312 149.25 191.222 146.73 191.222 146.73L191.742 146.74L196.772 146.84L202.342 146.95C202.342 146.95 202.122 149.02 202.122 151.58V151.6C202.122 152.81 202.172 154.14 202.322 155.4C202.462 156.68 202.712 157.89 203.102 158.87C203.872 160.82 206.521 160.66 206.642 160.67Z" fill="#CE7A63"/>
<path d="M207.498 160.14C207.463 160.826 206.777 178.478 205.318 203.551H205.3L190.654 160.334L191.375 160.176L199.656 164.29H202.171L206.848 160.017L206.918 160.035L207.498 160.14Z" fill="#407BFF"/>
<path opacity="0.5" d="M207.498 160.14C207.463 160.826 206.777 178.478 205.318 203.551H205.3L190.654 160.334L191.375 160.176L199.656 164.29H202.171L206.848 160.017L206.918 160.035L207.498 160.14Z" fill="white"/>
<path d="M192.585 159.909L201.335 164.314L197.667 169.17L190.659 160.339L192.585 159.909Z" fill="#407BFF"/>
<path d="M207.498 160.122V160.14L204.596 169.177L201.133 164.588L200.922 164.307L201.063 164.167L205.722 159.841L206.847 160.017L206.917 160.035L207.498 160.122Z" fill="#407BFF"/>
<g opacity="0.8">
<path d="M192.585 159.909L201.335 164.314L197.667 169.17L190.659 160.339L192.585 159.909Z" fill="white"/>
</g>
<g opacity="0.8">
<path d="M207.498 160.122V160.14L204.596 169.177L201.133 164.588L200.922 164.307L201.063 164.167L205.722 159.841L206.847 160.017L206.917 160.035L207.498 160.122Z" fill="white"/>
</g>
<path d="M202.336 171.872C202.368 172.422 201.948 172.893 201.398 172.925C200.848 172.957 200.377 172.537 200.345 171.987C200.313 171.437 200.733 170.966 201.283 170.934C201.833 170.902 202.304 171.322 202.336 171.872Z" fill="white"/>
<path d="M204.096 185.078C204.128 185.628 203.708 186.099 203.158 186.131C202.608 186.163 202.137 185.743 202.105 185.193C202.073 184.643 202.493 184.172 203.043 184.14C203.592 184.109 204.064 184.529 204.096 185.078Z" fill="white"/>
<path opacity="0.2" d="M202.322 155.4C199.892 154.96 197.852 154.2 196.202 153.27C194.772 152.46 193.622 151.3 192.842 149.92C192.282 148.95 191.902 147.87 191.742 146.74C191.662 146.27 191.622 145.79 191.622 145.31L196.772 146.84L201.652 148.29L202.122 151.58V151.6C202.122 152.81 202.171 154.14 202.322 155.4Z" fill="black"/>
<path d="M188.058 135.794C188.848 143.135 189.032 146.25 192.924 149.849C198.78 155.272 207.622 152.685 209.041 145.264C210.307 138.576 208.794 127.659 201.448 125.111C196.215 123.235 190.452 125.957 188.576 131.19C188.048 132.664 187.87 134.24 188.058 135.794Z" fill="#CE7A63"/>
<path d="M200.09 137.48C200.188 138.071 200.577 138.505 200.96 138.45C201.343 138.395 201.589 137.855 201.502 137.264C201.415 136.674 201.015 136.239 200.632 136.294C200.249 136.349 200.034 136.913 200.09 137.48Z" fill="#263238"/>
<path d="M206.787 136.455C206.884 137.057 207.274 137.48 207.657 137.425C208.039 137.37 208.286 136.83 208.199 136.239C208.112 135.648 207.712 135.214 207.329 135.28C206.945 135.346 206.699 135.865 206.787 136.455Z" fill="#263238"/>
<path d="M204.21 137.154C204.811 138.497 206.65 140.806 207.59 141.936C206.988 142.402 206.213 142.584 205.467 142.435L204.21 137.154Z" fill="#BA4D3C"/>
<path d="M197.082 136.273C197.236 136.284 197.378 136.193 197.432 136.048C197.981 135.027 198.931 134.281 200.054 133.99C200.245 133.943 200.362 133.751 200.317 133.56C200.272 133.374 200.085 133.26 199.898 133.305C199.894 133.306 199.89 133.307 199.885 133.308C198.533 133.648 197.396 134.559 196.771 135.805C196.704 135.985 196.795 136.184 196.975 136.251C197.008 136.268 197.045 136.276 197.082 136.273Z" fill="#263238"/>
<path d="M208.369 133.331C208.497 133.337 208.619 133.275 208.691 133.169C208.796 133.005 208.751 132.788 208.589 132.679C207.65 132.013 206.441 131.858 205.364 132.267C205.191 132.335 205.106 132.53 205.174 132.702C205.177 132.71 205.181 132.719 205.185 132.727C205.261 132.903 205.465 132.984 205.641 132.908C205.643 132.907 205.644 132.906 205.646 132.906C206.496 132.617 207.433 132.751 208.169 133.267C208.228 133.309 208.298 133.331 208.369 133.331Z" fill="#263238"/>
<path d="M203.867 145.068C201.403 145.068 200.025 143.532 199.963 143.46C199.896 143.384 199.904 143.268 199.98 143.201C200.056 143.134 200.172 143.142 200.239 143.218C200.255 143.235 201.821 144.987 204.551 144.659C204.653 144.646 204.743 144.719 204.755 144.82C204.767 144.921 204.695 145.012 204.594 145.024C204.343 145.055 204.1 145.068 203.867 145.068Z" fill="#263238"/>
<path d="M192.052 148.983C192.052 148.983 186.319 141.549 192.603 133.277C194.704 130.512 192.692 130.167 192.692 130.167C208.471 129.689 207.699 124.626 205.602 121.446C204.392 119.611 202.398 118.391 200.206 118.238C200.177 118.236 200.148 118.234 200.119 118.232C198.389 118.128 196.9 119.455 196.717 121.179L196.711 121.239C196.711 121.239 183.088 119.174 184.69 135.728C185.327 142.331 192.052 148.983 192.052 148.983Z" fill="#263238"/>
<path d="M186.319 141.549C186.843 142.845 187.857 143.882 189.142 144.435C190.86 145.143 191.947 143.663 191.661 141.915C191.39 140.345 190.178 138.083 188.366 138.084C187.05 138.127 186.018 139.228 186.06 140.543C186.071 140.894 186.16 141.237 186.319 141.549Z" fill="#CE7A63"/>
<path opacity="0.6" d="M219.888 181.376L220.17 186.771L211.272 187.235L210.991 181.84L214.945 181.634C214.664 181.438 214.682 181.033 214.66 180.604C214.626 179.945 214.811 179.438 215.33 179.411C215.849 179.384 216.052 179.93 216.087 180.589C216.109 181.019 216.203 181.358 215.944 181.582L219.888 181.376Z" fill="white"/>
<path d="M218.937 186.21L212.352 186.554C211.992 186.573 211.684 186.296 211.665 185.936L211.509 182.94C211.49 182.58 211.767 182.272 212.127 182.253L218.712 181.909C219.072 181.89 219.38 182.167 219.399 182.527L219.555 185.523C219.574 185.884 219.298 186.191 218.937 186.21Z" fill="white"/>
<path d="M215.696 180.155C215.706 180.347 215.558 180.512 215.366 180.522C215.173 180.532 215.009 180.384 214.999 180.192C214.989 180 215.137 179.835 215.329 179.825C215.522 179.815 215.686 179.963 215.696 180.155Z" fill="#263238"/>
<path opacity="0.2" d="M180.434 185.829L180.023 201.059L177.842 179.889L180.434 185.829Z" fill="black"/>
<path d="M216.097 200.018L215.398 211.16L216.657 212.07L209.763 213.178L212.593 199.799L216.097 200.018Z" fill="white"/>
<path opacity="0.5" d="M212.593 199.799L216.097 200.018L215.976 201.939C214.592 202.094 213.284 202.145 212.106 202.099L212.593 199.799Z" fill="black"/>
<path d="M216.155 193.735C218.147 193.415 222.173 193.31 223.8 193.386L224.738 199.224C223.216 199.806 219.252 200.297 217.261 200.617C211.588 201.529 206.741 200.728 206.435 198.828C206.13 196.927 210.482 194.647 216.155 193.735Z" fill="#263238"/>
<path d="M216.155 193.735C218.147 193.415 222.173 193.31 223.8 193.386L224.738 199.224C223.216 199.806 219.252 200.297 217.261 200.617C211.588 201.529 206.741 200.728 206.435 198.828C206.13 196.927 210.482 194.647 216.155 193.735Z" fill="white"/>
<path d="M222.863 193.369C223.181 193.37 223.499 193.372 223.8 193.386L224.738 199.224C224.457 199.332 224.155 199.432 223.853 199.533L222.863 193.369Z" fill="#263238"/>
<path d="M204.76 204.921C204.76 204.921 209.295 203.707 211.333 203.124C217.049 201.489 217.267 204.274 217.405 205.217C217.608 206.604 217.459 208.597 215.438 209.897C213.662 211.039 204.839 209.691 204.839 209.691L204.76 204.921Z" fill="#CE7A63"/>
<path d="M198.92 204.899C198.92 204.899 202.815 203.689 205.747 204.024C205.747 204.024 204.253 207.846 206.487 210.691L199.579 211.59L198.92 204.899Z" fill="#407BFF"/>
<path opacity="0.8" d="M198.92 204.899C198.92 204.899 202.815 203.689 205.747 204.024C205.747 204.024 204.253 207.846 206.487 210.691L199.579 211.59L198.92 204.899Z" fill="white"/>
<path d="M178.085 163.995C178.085 163.995 168.342 163.995 168.671 196.489C168.887 217.867 176.329 213.981 185.883 213.369L202.685 211.796C202.685 211.796 200.962 207.2 202.388 203.508C202.388 203.508 194.106 205.136 180.559 203.551C180.559 203.551 178.642 187.655 180.314 184.431C180.314 184.431 182.39 169.985 178.085 163.995Z" fill="#407BFF"/>
<path opacity="0.6" d="M178.085 163.995C178.085 163.995 168.342 163.995 168.671 196.489C168.887 217.867 176.329 213.981 185.883 213.369L202.685 211.796C202.685 211.796 200.962 207.2 202.388 203.508C202.388 203.508 194.106 205.136 180.559 203.551C180.559 203.551 178.642 187.655 180.314 184.431C180.314 184.431 182.39 169.985 178.085 163.995Z" fill="white"/>
<path opacity="0.1" d="M213.267 299.454L210.682 254.196L208.072 276.825L213.267 299.454Z" fill="black"/>
<path d="M384.183 269.273H164.098V413.779H384.183V269.273Z" fill="#407BFF"/>
<g opacity="0.4">
<path d="M384.183 269.273H164.098V413.779H384.183V269.273Z" fill="white"/>
</g>
<path d="M385.219 280.434H162.532C161.158 280.434 160.045 279.321 160.045 277.947V270.55C160.045 269.176 161.158 268.063 162.532 268.063H385.218C386.592 268.063 387.705 269.176 387.705 270.55V277.947C387.706 279.32 386.592 280.434 385.219 280.434Z" fill="#407BFF"/>
<path d="M278.56 248.424H327.733L331.245 208.277H282.073L278.56 248.424Z" fill="#407BFF"/>
<path opacity="0.2" d="M283.374 248.424H327.788L330.96 212.162H286.546L283.374 248.424Z" fill="black"/>
<path d="M299.989 253.737H314.479V239.067H299.947L299.989 253.737Z" fill="#263238"/>
<path d="M299.948 239.067H314.48V224.129H299.948V239.067Z" fill="#263238"/>
<path opacity="0.1" d="M299.948 239.067H314.48V224.129H299.948V239.067Z" fill="white"/>
<path opacity="0.2" d="M312.717 224.128H301.995C301.189 224.128 300.535 224.41 300.535 224.758C300.535 225.106 301.189 225.387 301.995 225.387H312.717C313.523 225.387 314.177 225.105 314.177 224.758C314.177 224.41 313.523 224.128 312.717 224.128Z" fill="white"/>
<path d="M268.641 267.757H334.715V253.737H282.57L268.641 260.917V267.757Z" fill="#407BFF"/>
<path opacity="0.2" d="M282.57 267.757H334.715V253.737H282.57V267.757Z" fill="black"/>
<path d="M320.251 216.23H326.13L328.335 191.034H322.456L320.251 216.23Z" fill="#407BFF"/>
<path opacity="0.2" d="M320.251 216.23H326.13L328.335 191.034H322.456L320.251 216.23Z" fill="black"/>
<path d="M300.974 196.904L342.958 196.522L344.365 180.443L302.381 180.825L300.974 196.904Z" fill="#407BFF"/>
<path d="M303.78 193.87H340.329L341.347 182.232L304.763 182.633L303.78 193.87Z" fill="#263238"/>
<path d="M344.365 180.443L342.958 196.522L345.504 194.976L346.416 183.285L344.365 180.443Z" fill="#407BFF"/>
<g opacity="0.2">
<path d="M344.365 180.443L342.958 196.522L345.504 194.976L346.416 183.285L344.365 180.443Z" fill="black"/>
</g>
<path d="M167.68 359.285C167.68 359.285 203.126 314.281 164.747 353.808C164.747 353.808 172.037 309.99 157.828 355.55C157.828 355.55 148.231 313.188 151.68 361.787C151.68 361.787 134.101 321.016 149.277 371.352C149.277 371.352 207.931 389.24 163.875 371.12C163.875 371.12 223.954 367.84 168.553 365.804C168.553 365.804 228.829 337.843 167.68 359.285Z" fill="#407BFF"/>
<path opacity="0.1" d="M167.68 359.285C167.68 359.285 203.126 314.281 164.747 353.808C164.747 353.808 172.037 309.99 157.828 355.55C157.828 355.55 148.231 313.188 151.68 361.787C151.68 361.787 134.101 321.016 149.277 371.352C149.277 371.352 207.931 389.24 163.875 371.12C163.875 371.12 223.954 367.84 168.553 365.804C168.553 365.804 228.829 337.843 167.68 359.285Z" fill="black"/>
<path d="M152.977 367.344C147.038 372.566 140.099 380.225 137.219 389.317" stroke="#263238" stroke-width="0.75" stroke-miterlimit="10" stroke-linecap="round" stroke-linejoin="round"/>
<path d="M112.992 385.045H153.682C154.351 385.045 154.894 385.925 154.894 387.01C154.894 388.095 154.352 388.975 153.682 388.975H152.804L149.988 406.039C149.322 410.076 147.066 412.884 144.489 412.884H122.185C119.608 412.884 117.352 410.076 116.686 406.039L113.871 388.975H112.993C112.324 388.975 111.781 388.096 111.781 387.01C111.78 385.924 112.322 385.045 112.992 385.045Z" fill="#263238" stroke="#263238" stroke-width="0.75" stroke-miterlimit="10" stroke-linecap="round" stroke-linejoin="round"/>
<path d="M146.68 346.524C146.68 346.524 168.066 282.198 141.216 341.605C141.216 341.605 131.738 289.904 134.214 346.322C134.214 346.322 106.523 303.022 129.874 355.733C129.874 355.733 93.937 317.408 131.04 367.345C131.04 367.345 203.51 363.707 147.196 361.226C147.196 361.226 212.753 333.454 150.269 353.43C150.269 353.43 206.136 298.105 146.68 346.524Z" fill="#407BFF"/>
<path d="M142.123 347.95C142.123 347.95 127.702 368.262 122.51 389.317" stroke="#263238" stroke-width="0.75" stroke-miterlimit="10" stroke-linecap="round" stroke-linejoin="round"/>
<path d="M110.982 349.535C110.982 349.535 60.55 309.814 104.844 352.822C104.844 352.822 55.741 344.653 106.796 360.576C106.796 360.576 59.325 371.33 113.785 367.466C113.785 367.466 68.096 387.165 124.504 370.159C124.504 370.159 144.549 304.432 124.244 353.8C124.244 353.8 120.569 286.476 118.287 348.558C118.287 348.556 86.953 281.011 110.982 349.535Z" fill="#407BFF"/>
<path opacity="0.3" d="M110.982 349.535C110.982 349.535 60.55 309.814 104.844 352.822C104.844 352.822 55.741 344.653 106.796 360.576C106.796 360.576 59.325 371.33 113.785 367.466C113.785 367.466 68.096 387.165 124.504 370.159C124.504 370.159 144.549 304.432 124.244 353.8C124.244 353.8 120.569 286.476 118.287 348.558C118.287 348.556 86.953 281.011 110.982 349.535Z" fill="white"/>
<path d="M134.784 392.201C125.715 361.917 109.733 354.559 109.733 354.559" stroke="#263238" stroke-width="0.75" stroke-miterlimit="10" stroke-linecap="round" stroke-linejoin="round"/>
</svg>
