<?xml version="1.0" encoding="utf-8"?>
<!-- Generator: Adobe Illustrator 27.5.0, SVG Export Plug-In . SVG Version: 6.00 Build 0)  -->
<svg version="1.1" xmlns="http://www.w3.org/2000/svg" xmlns:xlink="http://www.w3.org/1999/xlink" x="0px" y="0px"
	 viewBox="0 0 500 500" style="enable-background:new 0 0 500 500;" xml:space="preserve">
<g id="Background_Complete">
	<g>
		<g>
			<g>
				<g>
					<rect y="382.398" style="fill:#E0E0E0;" width="500" height="0.25"/>
					<rect x="344.93" y="391.621" style="fill:#E0E0E0;" width="34.403" height="0.25"/>
					<rect x="400.435" y="390.909" style="fill:#E0E0E0;" width="19.359" height="0.25"/>
					<rect x="221.665" y="391.496" style="fill:#E0E0E0;" width="25.683" height="0.25"/>
					<rect x="248.348" y="395.051" style="fill:#E0E0E0;" width="17.541" height="0.25"/>
					<rect x="91.681" y="388.972" style="fill:#E0E0E0;" width="52.985" height="0.25"/>
					<path style="fill:#E0E0E0;" d="M237.014,337.8H43.915c-3.147,0-5.708-2.561-5.708-5.708V60.66c0-3.147,2.561-5.708,5.708-5.708
						h193.099c3.146,0,5.707,2.561,5.707,5.708v271.432C242.721,335.239,240.16,337.8,237.014,337.8z M43.915,55.203
						c-3.01,0-5.458,2.448-5.458,5.458v271.432c0,3.01,2.448,5.458,5.458,5.458h193.099c3.009,0,5.457-2.448,5.457-5.458V60.66
						c0-3.009-2.448-5.458-5.457-5.458H43.915z"/>
					<path style="fill:#E0E0E0;" d="M453.31,337.8H260.212c-3.146,0-5.707-2.561-5.707-5.708V60.66c0-3.147,2.561-5.708,5.707-5.708
						H453.31c3.148,0,5.708,2.561,5.708,5.708v271.432C459.019,335.239,456.458,337.8,453.31,337.8z M260.212,55.203
						c-3.009,0-5.457,2.448-5.457,5.458v271.432c0,3.01,2.448,5.458,5.457,5.458H453.31c3.01,0,5.458-2.448,5.458-5.458V60.66
						c0-3.009-2.448-5.458-5.458-5.458H260.212z"/>
				</g>
			</g>
		</g>
		<g>
			<g>
				<g>
					<g>
						<rect x="283.333" y="79.267" style="fill:#E0E0E0;" width="150.698" height="129.559"/>
						<rect x="286.682" y="79.267" style="fill:#F0F0F0;" width="150.698" height="129.559"/>
						
							<rect x="303.332" y="74.709" transform="matrix(-1.836970e-16 1 -1 -1.836970e-16 506.0776 -217.9849)" style="fill:#FAFAFA;" width="117.399" height="138.676"/>
						
							<rect x="323.816" y="139.514" transform="matrix(-1.836970e-16 1 -1 -1.836970e-16 526.5623 -238.4696)" style="fill:#E0E0E0;" width="117.399" height="9.065"/>
						
							<rect x="276.149" y="139.514" transform="matrix(-1.836970e-16 1 -1 -1.836970e-16 478.8952 -190.8025)" style="fill:#E0E0E0;" width="117.399" height="9.065"/>
						
							<rect x="322.814" y="139.182" transform="matrix(-1.836970e-16 1 -1 -1.836970e-16 529.4176 -241.9878)" style="fill:#F0F0F0;" width="125.778" height="9.065"/>
						
							<rect x="275.147" y="139.182" transform="matrix(-1.836970e-16 1 -1 -1.836970e-16 481.7505 -194.3207)" style="fill:#F0F0F0;" width="125.778" height="9.065"/>
						
							<rect x="371.404" y="142.781" transform="matrix(-1.836970e-16 1 -1 -1.836970e-16 574.1496 -286.0569)" style="fill:#E0E0E0;" width="117.399" height="2.532"/>
					</g>
				</g>
			</g>
			<g>
				<path style="fill:#E0E0E0;" d="M177.344,181.589c0,0-18.338-31.612,7.103-56.775c0,0,6.64,4.328,6.538,10.146
					c-0.102,5.818-7.111,7.29-5.605,12.146c1.506,4.855,8.124,9.619,3.78,13.633c-4.343,4.014,0.7,7.587,0.406,12.505
					C189.273,178.161,177.344,181.589,177.344,181.589z"/>
				<path style="fill:#E6E6E6;" d="M180.223,186.757c0,0,7.434-35.781-24.644-51.639c0,0-4.937,6.201-3.005,11.69
					c1.931,5.489,9.047,4.676,9.149,9.758c0.102,5.083-4.676,11.69,0.712,14.13c5.387,2.44,1.728,7.421,3.558,11.995
					C167.822,187.265,180.223,186.757,180.223,186.757z"/>
				<g>
					<path style="fill:#F0F0F0;" d="M163.892,177.672c0,0,0.322,30.884,12.666,30.884c12.344,0,12.666-30.884,12.666-30.884H163.892
						z"/>
				</g>
			</g>
			<g>
				<path style="fill:#E6E6E6;" d="M89.691,196.936c0,0,0.688,11.62,27.063,11.62s27.063-11.62,27.063-11.62H89.691z"/>
			</g>
			<g>
				<path style="fill:#F0F0F0;" d="M367.703,296.304h-13.927c-1.732,0-3.136-1.404-3.136-3.136v-23.032
					c0-1.732,1.404-3.136,3.136-3.136h13.927c1.732,0,3.136,1.404,3.136,3.136v23.032
					C370.839,294.9,369.435,296.304,367.703,296.304z"/>
				<path style="fill:#E6E6E6;" d="M404.617,296.304h-9.371c-1.165,0-2.11-0.945-2.11-2.11v-15.499c0-1.166,0.945-2.11,2.11-2.11
					h9.371c1.165,0,2.11,0.945,2.11,2.11v15.499C406.728,295.359,405.783,296.304,404.617,296.304z"/>
				<path style="fill:#F0F0F0;" d="M406.019,276.891h-12.175c-0.391,0-0.708-0.317-0.708-0.708v-0.806
					c0-0.391,0.317-0.708,0.708-0.708h12.175c0.391,0,0.708,0.317,0.708,0.708v0.806
					C406.728,276.573,406.411,276.891,406.019,276.891z"/>
				<path style="fill:#E6E6E6;" d="M318.423,280c0,0,0.498,16.304,19.591,16.304c19.093,0,19.591-16.304,19.591-16.304H318.423z"/>
				<g>
					<g>
						
							<rect x="270.941" y="252.778" transform="matrix(-1 -1.224647e-16 1.224647e-16 -1 570.7709 511.2513)" style="fill:#E0E0E0;" width="28.889" height="5.696"/>
						<rect x="299.83" y="252.778" style="fill:#F0F0F0;" width="143.63" height="5.696"/>
					</g>
				</g>
				<g>
					<g>
						
							<rect x="270.941" y="296.304" transform="matrix(-1 -1.224647e-16 1.224647e-16 -1 570.7709 598.3043)" style="fill:#E0E0E0;" width="28.889" height="5.696"/>
						<rect x="299.83" y="296.304" style="fill:#F0F0F0;" width="143.63" height="5.696"/>
					</g>
				</g>
				<rect x="276.025" y="258.474" style="fill:#E0E0E0;" width="5.333" height="123.925"/>
				<rect x="299.83" y="258.474" style="fill:#F0F0F0;" width="5.333" height="123.925"/>
				<rect x="419.655" y="258.474" style="fill:#E0E0E0;" width="5.333" height="123.925"/>
				<rect x="438.126" y="258.474" style="fill:#F0F0F0;" width="5.333" height="123.925"/>
			</g>
			<g>
				<g>
					<rect x="62.373" y="215.806" style="fill:#E6E6E6;" width="27.318" height="159.086"/>
					<rect x="67.618" y="374.892" style="fill:#E6E6E6;" width="134.719" height="7.507"/>
					
						<rect x="89.691" y="215.806" transform="matrix(-1 -1.224647e-16 1.224647e-16 -1 297.2729 590.6972)" style="fill:#F0F0F0;" width="117.891" height="159.086"/>
					
						<rect x="100.431" y="275.921" transform="matrix(-1 -1.224647e-16 1.224647e-16 -1 297.2729 590.6972)" style="fill:#E6E6E6;" width="96.411" height="38.855"/>
					
						<rect x="100.431" y="321.863" transform="matrix(-1 -1.224647e-16 1.224647e-16 -1 297.2729 682.5812)" style="fill:#E6E6E6;" width="96.411" height="38.855"/>
					<path style="fill:#F0F0F0;" d="M159.46,280.18h-21.647c-1.465,0-2.664-1.199-2.664-2.664l0,0c0-1.465,1.199-2.664,2.664-2.664
						h21.647c1.465,0,2.664,1.199,2.664,2.664l0,0C162.124,278.981,160.925,280.18,159.46,280.18z"/>
					
						<rect x="100.431" y="229.979" transform="matrix(-1 -1.224647e-16 1.224647e-16 -1 297.2729 498.8132)" style="fill:#E6E6E6;" width="96.411" height="38.855"/>
					<path style="fill:#F0F0F0;" d="M159.46,234.238h-21.647c-1.465,0-2.664-1.199-2.664-2.664l0,0c0-1.465,1.199-2.664,2.664-2.664
						h21.647c1.465,0,2.664,1.199,2.664,2.664l0,0C162.124,233.039,160.925,234.238,159.46,234.238z"/>
					<path style="fill:#F0F0F0;" d="M159.46,326.121h-21.647c-1.465,0-2.664-1.199-2.664-2.664l0,0c0-1.465,1.199-2.664,2.664-2.664
						h21.647c1.465,0,2.664,1.199,2.664,2.664l0,0C162.124,324.923,160.925,326.121,159.46,326.121z"/>
				</g>
				<rect x="89.691" y="208.556" style="fill:#E6E6E6;" width="121.531" height="7.25"/>
				
					<rect x="58.556" y="208.556" transform="matrix(-1 -1.224647e-16 1.224647e-16 -1 148.2463 424.3613)" style="fill:#E0E0E0;" width="31.135" height="7.25"/>
			</g>
			<g>
				<rect x="75.936" y="85.347" style="fill:#E6E6E6;" width="44.202" height="48.537"/>
				<rect x="79.268" y="85.347" style="fill:#F0F0F0;" width="45.658" height="48.537"/>
				
					<rect x="81.653" y="90.612" transform="matrix(-1.836970e-16 1 -1 -1.836970e-16 211.7123 7.5187)" style="fill:#FAFAFA;" width="40.887" height="38.008"/>
				
					<rect x="91.564" y="99.824" transform="matrix(-1.836970e-16 1 -1 -1.836970e-16 211.7123 7.5187)" style="fill:#F0F0F0;" width="21.066" height="19.583"/>
			</g>
			<g>
				<g>
					<rect x="133.222" y="71.016" style="fill:#E6E6E6;" width="33.523" height="36.006"/>
					<rect x="136.427" y="71.016" style="fill:#F0F0F0;" width="33.87" height="36.006"/>
					
						<rect x="138.196" y="74.921" transform="matrix(-1.836970e-16 1 -1 -1.836970e-16 242.3805 -64.343)" style="fill:#FAFAFA;" width="30.331" height="28.195"/>
					<polygon style="fill:#F0F0F0;" points="153.362,81.352 145.651,94.707 161.073,94.707 					"/>
				</g>
			</g>
		</g>
	</g>
</g>
<g id="Background_Simple" style="display:none;">
	<g style="display:inline;">
		<path style="fill:#407BFF;" d="M83.677,144.51C67.25,282.386,226.793,416.145,350.233,317.109
			c55.73-44.712,95.709-187.68,1.406-208.615c-54.077-12.005-112.206,35.958-163.758,17.103
			c-24.783-9.064-37.472-44.757-66.268-40.966C94.572,88.19,86.415,121.528,83.677,144.51z"/>
		<path style="opacity:0.9;fill:#FFFFFF;" d="M83.677,144.51C67.25,282.386,226.793,416.145,350.233,317.109
			c55.73-44.712,95.709-187.68,1.406-208.615c-54.077-12.005-112.206,35.958-163.758,17.103
			c-24.783-9.064-37.472-44.757-66.268-40.966C94.572,88.19,86.415,121.528,83.677,144.51z"/>
	</g>
</g>
<g id="Shadow">
	<ellipse style="fill:#F5F5F5;" cx="250" cy="416.238" rx="193.889" ry="11.323"/>
</g>
<g id="Speech_Bubbles">
	<g>
		<g>
			<path style="fill:#407BFF;" d="M419.803,191.241h-98.104c-5.152,0-9.368-4.216-9.368-9.368v-26.687
				c0-5.152,4.216-9.368,9.368-9.368h98.104c5.152,0,9.368,4.216,9.368,9.368v26.687
				C429.171,187.025,424.956,191.241,419.803,191.241z"/>
			<g>
				<g>
					<path style="fill:#407BFF;" d="M400.334,158.559h-76.618c-0.904,0-1.644-0.74-1.644-1.644v-1.793
						c0-0.904,0.74-1.644,1.644-1.644h76.618c0.904,0,1.644,0.74,1.644,1.644v1.793
						C401.978,157.819,401.238,158.559,400.334,158.559z"/>
					<path style="fill:#407BFF;" d="M376.065,170.801h-52.349c-0.904,0-1.644-0.74-1.644-1.644v-1.794
						c0-0.904,0.74-1.644,1.644-1.644h52.349c0.904,0,1.644,0.74,1.644,1.644v1.794
						C377.709,170.061,376.969,170.801,376.065,170.801z"/>
					<path style="fill:#407BFF;" d="M362.025,183.044h-38.309c-0.904,0-1.644-0.74-1.644-1.644v-1.794
						c0-0.904,0.74-1.644,1.644-1.644h38.309c0.904,0,1.644,0.74,1.644,1.644v1.794
						C363.669,182.304,362.929,183.044,362.025,183.044z"/>
					<path style="fill:#407BFF;" d="M409.516,183.044h-38.309c-0.904,0-1.644-0.74-1.644-1.644v-1.794
						c0-0.904,0.74-1.644,1.644-1.644h38.309c0.904,0,1.644,0.74,1.644,1.644v1.794C411.16,182.304,410.42,183.044,409.516,183.044z
						"/>
				</g>
				<g style="opacity:0.5;">
					<path style="fill:#FFFFFF;" d="M400.334,158.559h-76.618c-0.904,0-1.644-0.74-1.644-1.644v-1.793
						c0-0.904,0.74-1.644,1.644-1.644h76.618c0.904,0,1.644,0.74,1.644,1.644v1.793
						C401.978,157.819,401.238,158.559,400.334,158.559z"/>
					<path style="fill:#FFFFFF;" d="M376.065,170.801h-52.349c-0.904,0-1.644-0.74-1.644-1.644v-1.794
						c0-0.904,0.74-1.644,1.644-1.644h52.349c0.904,0,1.644,0.74,1.644,1.644v1.794
						C377.709,170.061,376.969,170.801,376.065,170.801z"/>
					<path style="fill:#FFFFFF;" d="M362.025,183.044h-38.309c-0.904,0-1.644-0.74-1.644-1.644v-1.794
						c0-0.904,0.74-1.644,1.644-1.644h38.309c0.904,0,1.644,0.74,1.644,1.644v1.794
						C363.669,182.304,362.929,183.044,362.025,183.044z"/>
					<path style="fill:#FFFFFF;" d="M409.516,183.044h-38.309c-0.904,0-1.644-0.74-1.644-1.644v-1.794
						c0-0.904,0.74-1.644,1.644-1.644h38.309c0.904,0,1.644,0.74,1.644,1.644v1.794C411.16,182.304,410.42,183.044,409.516,183.044z
						"/>
				</g>
			</g>
		</g>
		<g>
			<path style="fill:#407BFF;" d="M341.22,201.828H229.862c-7.554,0-13.735-6.181-13.735-13.735v-39.127
				c0-7.554,6.181-13.735,13.735-13.735H341.22c7.554,0,13.735,6.181,13.735,13.735v39.127
				C354.955,195.647,348.774,201.828,341.22,201.828z"/>
			<g>
				<g>
					<path style="fill:#407BFF;" d="M345.156,153.91H232.82c-1.325,0-2.41-1.084-2.41-2.41v-2.63c0-1.325,1.084-2.41,2.41-2.41
						h112.336c1.325,0,2.41,1.084,2.41,2.41v2.63C347.565,152.826,346.481,153.91,345.156,153.91z"/>
					<path style="fill:#407BFF;" d="M309.573,171.86H232.82c-1.325,0-2.41-1.084-2.41-2.41v-2.63c0-1.325,1.084-2.41,2.41-2.41
						h76.753c1.325,0,2.41,1.084,2.41,2.41v2.63C311.983,170.776,310.898,171.86,309.573,171.86z"/>
					<path style="fill:#407BFF;" d="M288.988,189.81H232.82c-1.325,0-2.41-1.084-2.41-2.41v-2.63c0-1.325,1.084-2.41,2.41-2.41
						h56.168c1.325,0,2.41,1.084,2.41,2.41v2.63C291.398,188.725,290.313,189.81,288.988,189.81z"/>
					<path style="fill:#407BFF;" d="M349.255,189.81H302.45c-1.325,0-2.41-1.084-2.41-2.41v-2.63c0-1.325,1.084-2.41,2.41-2.41
						h46.805c1.325,0,2.41,1.084,2.41,2.41v2.63C351.665,188.725,350.58,189.81,349.255,189.81z"/>
				</g>
				<g style="opacity:0.5;">
					<path style="fill:#FFFFFF;" d="M345.156,153.91H232.82c-1.325,0-2.41-1.084-2.41-2.41v-2.63c0-1.325,1.084-2.41,2.41-2.41
						h112.336c1.325,0,2.41,1.084,2.41,2.41v2.63C347.565,152.826,346.481,153.91,345.156,153.91z"/>
					<path style="fill:#FFFFFF;" d="M309.573,171.86H232.82c-1.325,0-2.41-1.084-2.41-2.41v-2.63c0-1.325,1.084-2.41,2.41-2.41
						h76.753c1.325,0,2.41,1.084,2.41,2.41v2.63C311.983,170.776,310.898,171.86,309.573,171.86z"/>
					<path style="fill:#FFFFFF;" d="M288.988,189.81H232.82c-1.325,0-2.41-1.084-2.41-2.41v-2.63c0-1.325,1.084-2.41,2.41-2.41
						h56.168c1.325,0,2.41,1.084,2.41,2.41v2.63C291.398,188.725,290.313,189.81,288.988,189.81z"/>
					<path style="fill:#FFFFFF;" d="M349.255,189.81H302.45c-1.325,0-2.41-1.084-2.41-2.41v-2.63c0-1.325,1.084-2.41,2.41-2.41
						h46.805c1.325,0,2.41,1.084,2.41,2.41v2.63C351.665,188.725,350.58,189.81,349.255,189.81z"/>
				</g>
			</g>
		</g>
		<g>
			<g>
				<path style="fill:#407BFF;" d="M271.989,307.075h-53.634c-3.531,0-6.42-2.889-6.42-6.42V220.32c0-3.531,2.889-6.42,6.42-6.42
					h53.634c3.531,0,6.42,2.889,6.42,6.42v80.336C278.409,304.186,275.52,307.075,271.989,307.075z"/>
				<path style="opacity:0.4;" d="M271.989,307.075h-53.634c-3.531,0-6.42-2.889-6.42-6.42V220.32c0-3.531,2.889-6.42,6.42-6.42
					h53.634c3.531,0,6.42,2.889,6.42,6.42v80.336C278.409,304.186,275.52,307.075,271.989,307.075z"/>
			</g>
			<path style="fill:#FAFAFA;" d="M269.53,227.743h-48.714c-0.651,0-1.184-0.533-1.184-1.184V224.8c0-0.651,0.533-1.184,1.184-1.184
				h48.714c0.651,0,1.184,0.533,1.184,1.184v1.758C270.714,227.21,270.181,227.743,269.53,227.743z"/>
			<path style="fill:#FAFAFA;" d="M254.015,237.688h-33.199c-0.651,0-1.184-0.533-1.184-1.184v-1.758
				c0-0.651,0.533-1.184,1.184-1.184h33.199c0.651,0,1.184,0.533,1.184,1.184v1.758
				C255.199,237.155,254.666,237.688,254.015,237.688z"/>
			<path style="fill:#FAFAFA;" d="M269.53,247.633h-48.714c-0.651,0-1.184-0.533-1.184-1.184v-1.758
				c0-0.651,0.533-1.184,1.184-1.184h48.714c0.651,0,1.184,0.533,1.184,1.184v1.758C270.714,247.1,270.181,247.633,269.53,247.633z"
				/>
			<path style="fill:#FAFAFA;" d="M238.912,257.579h-18.097c-0.651,0-1.184-0.533-1.184-1.184v-1.758
				c0-0.651,0.533-1.184,1.184-1.184h18.097c0.651,0,1.184,0.533,1.184,1.184v1.758
				C240.097,257.046,239.564,257.579,238.912,257.579z"/>
			<path style="fill:#FAFAFA;" d="M264.248,257.579H246.15c-0.651,0-1.184-0.533-1.184-1.184v-1.758
				c0-0.651,0.533-1.184,1.184-1.184h18.097c0.651,0,1.184,0.533,1.184,1.184v1.758
				C265.432,257.046,264.899,257.579,264.248,257.579z"/>
			<path style="fill:#FAFAFA;" d="M269.53,267.524h-48.714c-0.651,0-1.184-0.533-1.184-1.184v-1.758
				c0-0.651,0.533-1.184,1.184-1.184h48.714c0.651,0,1.184,0.533,1.184,1.184v1.758C270.714,266.991,270.181,267.524,269.53,267.524
				z"/>
			<path style="fill:#FAFAFA;" d="M269.53,277.469h-48.714c-0.651,0-1.184-0.533-1.184-1.184v-1.758
				c0-0.651,0.533-1.184,1.184-1.184h48.714c0.651,0,1.184,0.533,1.184,1.184v1.758C270.714,276.936,270.181,277.469,269.53,277.469
				z"/>
			<path style="fill:#FAFAFA;" d="M260.89,287.414h-40.075c-0.651,0-1.184-0.533-1.184-1.184v-1.758
				c0-0.651,0.533-1.184,1.184-1.184h40.075c0.651,0,1.184,0.533,1.184,1.184v1.758C262.075,286.881,261.542,287.414,260.89,287.414
				z"/>
			<path style="fill:#FAFAFA;" d="M239.505,297.359h-18.689c-0.651,0-1.184-0.533-1.184-1.184v-1.758
				c0-0.651,0.533-1.184,1.184-1.184h18.689c0.652,0,1.185,0.533,1.185,1.184v1.758
				C240.689,296.826,240.156,297.359,239.505,297.359z"/>
		</g>
		<g>
			<g>
				<path style="fill:#407BFF;" d="M286.496,213.333h-74.382l32.852,26.169l50.434,18.972v-36.237
					C295.4,217.34,291.393,213.333,286.496,213.333z"/>
				<path style="opacity:0.4;" d="M286.496,213.333h-74.382l32.852,26.169l50.434,18.972v-36.237
					C295.4,217.34,291.393,213.333,286.496,213.333z"/>
			</g>
			<path style="fill:#FAFAFA;" d="M283.249,232.531h-54.433c-0.813,0-1.479-0.665-1.479-1.479v-2.767
				c0-0.813,0.665-1.479,1.479-1.479h54.433c0.813,0,1.479,0.665,1.479,1.479v2.767
				C284.728,231.866,284.062,232.531,283.249,232.531z"/>
		</g>
		<g>
			<path style="fill:#407BFF;" d="M309.77,284.168v-52.314c0-3.993,3.267-7.26,7.26-7.26h90.853c3.993,0,7.26,3.267,7.26,7.26
				v52.314c0,3.993-3.267,7.26-7.26,7.26H317.03C313.037,291.428,309.77,288.161,309.77,284.168z"/>
			<g>
				<path style="fill:#407BFF;" d="M326.359,267.579v-52.314c0-3.993,3.267-7.26,7.26-7.26h90.853c3.993,0,7.26,3.267,7.26,7.26
					v52.314c0,3.993-3.267,7.26-7.26,7.26h-90.853C329.626,274.839,326.359,271.572,326.359,267.579z"/>
				<path style="opacity:0.5;fill:#FFFFFF;" d="M326.359,267.579v-52.314c0-3.993,3.267-7.26,7.26-7.26h90.853
					c3.993,0,7.26,3.267,7.26,7.26v52.314c0,3.993-3.267,7.26-7.26,7.26h-90.853C329.626,274.839,326.359,271.572,326.359,267.579z"
					/>
			</g>
			<g>
				<path style="fill:#407BFF;" d="M386.362,249.66v-32.199c0-1.779,1.456-3.235,3.235-3.235h29.684
					c1.779,0,3.235,1.456,3.235,3.235v32.199c0,1.779-1.456,3.235-3.235,3.235h-29.684
					C387.817,252.895,386.362,251.439,386.362,249.66z"/>
				<path style="opacity:0.7;fill:#FFFFFF;" d="M386.362,249.66v-32.199c0-1.779,1.456-3.235,3.235-3.235h29.684
					c1.779,0,3.235,1.456,3.235,3.235v32.199c0,1.779-1.456,3.235-3.235,3.235h-29.684
					C387.817,252.895,386.362,251.439,386.362,249.66z"/>
			</g>
			<g>
				<path style="fill:#407BFF;" d="M352.999,265.236v-24.681c0-1.364,1.116-2.479,2.479-2.479h22.753
					c1.364,0,2.479,1.116,2.479,2.479v24.681c0,1.364-1.116,2.479-2.479,2.479h-22.753
					C354.115,267.715,352.999,266.599,352.999,265.236z"/>
				<path style="opacity:0.3;fill:#FFFFFF;" d="M352.999,265.236v-24.681c0-1.364,1.116-2.479,2.479-2.479h22.753
					c1.364,0,2.479,1.116,2.479,2.479v24.681c0,1.364-1.116,2.479-2.479,2.479h-22.753
					C354.115,267.715,352.999,266.599,352.999,265.236z"/>
			</g>
			<g>
				<path style="fill:#407BFF;" d="M107.963,108.77V95.436c0-4.058,3.32-7.378,7.378-7.378h244.137c4.058,0,7.378,3.32,7.378,7.378
					v13.334c0,4.058-3.32,7.378-7.378,7.378H115.341C111.283,116.148,107.963,112.828,107.963,108.77z"/>
				<path style="opacity:0.5;fill:#FFFFFF;" d="M107.963,108.77V95.436c0-4.058,3.32-7.378,7.378-7.378h244.137
					c4.058,0,7.378,3.32,7.378,7.378v13.334c0,4.058-3.32,7.378-7.378,7.378H115.341
					C111.283,116.148,107.963,112.828,107.963,108.77z"/>
			</g>
			<g>
				
					<rect x="280.705" y="80.877" transform="matrix(-1.836970e-16 1 -1 -1.836970e-16 401.5439 -169.5385)" style="fill:#407BFF;" width="9.672" height="70.251"/>
				
					<rect x="280.705" y="80.877" transform="matrix(-1.836970e-16 1 -1 -1.836970e-16 401.5439 -169.5385)" style="opacity:0.5;fill:#FFFFFF;" width="9.672" height="70.251"/>
			</g>
			<path style="fill:#407BFF;" d="M133.14,67.267V53.933c0-4.058,3.32-7.378,7.378-7.378h244.137c4.058,0,7.378,3.32,7.378,7.378
				v13.334c0,4.058-3.32,7.378-7.378,7.378H140.517C136.46,74.645,133.14,71.325,133.14,67.267z"/>
		</g>
	</g>
</g>
<g id="Character">
	<g>
		<path style="fill:#E4897B;" d="M130.358,194.264c-0.876,1.96-1.851,4.152-2.702,6.267c-0.86,2.14-1.724,4.28-2.493,6.438
			c-1.577,4.301-2.92,8.659-3.79,12.932l-0.292,1.596l-0.101,0.606c-0.031,0.164-0.034,0.39-0.058,0.584
			c-0.046,0.848-0.027,1.874,0.061,2.923c0.189,2.113,0.526,4.37,0.953,6.633c0.844,4.529,1.916,9.202,2.975,13.793l-5.129,2.028
			c-2.393-4.388-4.413-8.842-6.095-13.597c-0.827-2.381-1.581-4.817-2.114-7.462c-0.264-1.329-0.503-2.701-0.564-4.26
			c-0.005-0.407-0.028-0.784-0.01-1.219c0.016-0.425,0.035-0.904,0.071-1.189l0.196-1.98c0.31-2.613,0.774-5.171,1.373-7.652
			c0.564-2.499,1.284-4.926,2.049-7.327c0.774-2.399,1.626-4.756,2.572-7.075c0.469-1.161,0.959-2.312,1.465-3.462
			c0.505-1.17,1.019-2.252,1.637-3.483L130.358,194.264z"/>
		<path style="fill:#E4897B;" d="M124.711,244.69l3.902,3.807l-8.508,3.958c0,0-2.065-3.605-0.639-6.865L124.711,244.69z"/>
		<polygon style="fill:#E4897B;" points="131.756,254.167 124.571,257.109 120.105,252.456 128.613,248.498 		"/>
		<g>
			<path style="opacity:0.4;fill:#FAFAFA;" d="M277.406,250.068c-39.521-4.415-67.988-40.032-63.573-79.562
				c4.416-39.53,40.041-67.987,79.562-63.572c39.53,4.416,67.997,40.033,63.581,79.563
				C352.561,226.026,316.935,254.484,277.406,250.068z"/>
			<path style="opacity:0.4;fill:#FAFAFA;" d="M329.793,121.791l-109.498,87.493c-0.469-0.989-0.912-1.99-1.339-2.998
				c-2.708-6.443-4.486-13.322-5.202-20.478l0.001-0.008l94.577-75.57C316.216,112.864,323.447,116.814,329.793,121.791z"/>
			<path style="opacity:0.4;fill:#FAFAFA;" d="M355.056,160.123l-102.947,82.251c-9.866-5.14-18.314-12.47-24.771-21.284
				l112.417-89.825C346.926,139.508,352.211,149.365,355.056,160.123z"/>
			<g>
				<path style="fill:#407BFF;" d="M204.386,151.033l-0.947-0.321c1.65-4.867,3.729-9.596,6.178-14.054l0.876,0.482
					C208.072,141.546,206.018,146.221,204.386,151.033z M216.527,127.69l-0.806-0.593c8.104-11.013,18.953-20.074,31.373-26.206
					l0.442,0.896C235.259,107.849,224.536,116.806,216.527,127.69z M326.124,103.158c-3.252-1.754-6.65-3.31-10.104-4.623
					l0.356-0.935c3.493,1.329,6.933,2.903,10.223,4.678L326.124,103.158z"/>
				<path style="opacity:0.3;" d="M204.386,151.033l-0.947-0.321c1.65-4.867,3.729-9.596,6.178-14.054l0.876,0.482
					C208.072,141.546,206.018,146.221,204.386,151.033z M216.527,127.69l-0.806-0.593c8.104-11.013,18.953-20.074,31.373-26.206
					l0.442,0.896C235.259,107.849,224.536,116.806,216.527,127.69z M326.124,103.158c-3.252-1.754-6.65-3.31-10.104-4.623
					l0.356-0.935c3.493,1.329,6.933,2.903,10.223,4.678L326.124,103.158z"/>
			</g>
			<g>
				<path style="fill:#407BFF;" d="M359.872,141.738c-20.302-41.127-70.103-58.01-111.229-37.709
					c-38.235,18.874-55.496,63.242-41.424,102.436c-6.681,2.344-13.278,4.858-19.839,7.444c-9.459,3.747-18.824,7.684-28.12,11.76
					c-9.278,4.114-18.519,8.303-27.665,12.683c-4.595,2.145-9.128,4.418-13.695,6.62c-2.311,1.045-4.476,2.387-6.338,4.343
					c-0.937,0.965-1.795,2.091-2.573,3.379c-0.768,1.308-1.475,2.74-1.957,4.625c-1.538,5.98,1.475,12.351,7.329,14.847
					c1.79,0.763,3.357,1.073,4.862,1.259c1.495,0.166,2.911,0.169,4.247,0.012c2.685-0.288,5.067-1.19,7.302-2.389
					c4.526-2.286,9.086-4.502,13.584-6.845c9.039-4.597,17.984-9.386,26.892-14.248c8.89-4.9,17.71-9.941,26.437-15.171
					c6.043-3.637,12.051-7.344,17.975-11.223c22.559,35.008,68.274,48.285,106.507,29.412
					C363.293,232.673,380.177,182.872,359.872,141.738z M314.413,237.266c-32.456,16.021-71.748,2.694-87.769-29.761
					c-16.018-32.448-2.702-71.745,29.754-87.766c32.456-16.021,71.748-2.694,87.766,29.754
					C360.184,181.948,346.869,221.245,314.413,237.266z"/>
				<path style="opacity:0.3;" d="M359.872,141.738c-20.302-41.127-70.103-58.01-111.229-37.709
					c-38.235,18.874-55.496,63.242-41.424,102.436c-6.681,2.344-13.278,4.858-19.839,7.444c-9.459,3.747-18.824,7.684-28.12,11.76
					c-9.278,4.114-18.519,8.303-27.665,12.683c-4.595,2.145-9.128,4.418-13.695,6.62c-2.311,1.045-4.476,2.387-6.338,4.343
					c-0.937,0.965-1.795,2.091-2.573,3.379c-0.768,1.308-1.475,2.74-1.957,4.625c-1.538,5.98,1.475,12.351,7.329,14.847
					c1.79,0.763,3.357,1.073,4.862,1.259c1.495,0.166,2.911,0.169,4.247,0.012c2.685-0.288,5.067-1.19,7.302-2.389
					c4.526-2.286,9.086-4.502,13.584-6.845c9.039-4.597,17.984-9.386,26.892-14.248c8.89-4.9,17.71-9.941,26.437-15.171
					c6.043-3.637,12.051-7.344,17.975-11.223c22.559,35.008,68.274,48.285,106.507,29.412
					C363.293,232.673,380.177,182.872,359.872,141.738z M314.413,237.266c-32.456,16.021-71.748,2.694-87.769-29.761
					c-16.018-32.448-2.702-71.745,29.754-87.766c32.456-16.021,71.748-2.694,87.766,29.754
					C360.184,181.948,346.869,221.245,314.413,237.266z"/>
			</g>
		</g>
		<path style="fill:#263238;" d="M158.022,158.55c-0.001,0.592,0.313,1.073,0.7,1.073c0.387,0,0.702-0.48,0.702-1.072
			c0.001-0.593-0.313-1.073-0.7-1.074C158.337,157.477,158.022,157.957,158.022,158.55z"/>
		<path style="fill:#DE5753;" d="M158.28,159.623c0,0,1.345,3.42,2.826,5.07c-1.049,0.977-2.831,0.529-2.831,0.529L158.28,159.623z"
			/>
		<path style="fill:#263238;" d="M155.925,155.265c-0.108,0-0.215-0.05-0.283-0.145c-0.112-0.156-0.077-0.374,0.08-0.486
			c1.563-1.124,3.067-0.561,3.131-0.536c0.179,0.069,0.268,0.271,0.198,0.45c-0.069,0.179-0.27,0.268-0.449,0.199
			c-0.058-0.021-1.232-0.443-2.474,0.452C156.066,155.243,155.996,155.265,155.925,155.265z"/>
		<path style="fill:#E4897B;" d="M137.796,163.018c1.054,5.374,2.105,15.222-1.655,18.808c0,0,1.469,5.452,11.455,5.452
			c10.981,0,5.248-5.451,5.248-5.451c-5.993-1.431-5.838-5.878-4.794-10.053L137.796,163.018z"/>
		<g>
			<path style="fill:#407BFF;" d="M131.652,184.636c1.186-1.851-0.816-6.333-0.816-6.333s17.689-4.451,24.917,2.375
				c1.5,1.417-0.167,3.494-0.167,3.494L131.652,184.636z"/>
			<path style="opacity:0.1;" d="M131.652,184.636c1.186-1.851-0.816-6.333-0.816-6.333s17.689-4.451,24.917,2.375
				c1.5,1.417-0.167,3.494-0.167,3.494L131.652,184.636z"/>
		</g>
		<path style="fill:#407BFF;" d="M102.398,388.675c-0.932,0-2.419-1.557-2.858-2.137c-0.042-0.055-0.047-0.128-0.014-0.188
			c0.033-0.06,0.101-0.089,0.167-0.09c0.104,0.009,2.556,0.22,3.224,1.095c0.154,0.201,0.21,0.424,0.166,0.66
			c-0.084,0.449-0.328,0.597-0.519,0.643C102.511,388.669,102.455,388.675,102.398,388.675z M100.083,386.653
			c0.732,0.84,1.897,1.785,2.401,1.665c0.048-0.012,0.196-0.047,0.256-0.368c0.025-0.137-0.007-0.263-0.1-0.385
			C102.243,387.045,100.904,386.765,100.083,386.653z"/>
		<path style="fill:#407BFF;" d="M100.187,386.647c-0.209,0-0.395-0.014-0.541-0.042c-0.063-0.012-0.114-0.058-0.133-0.118
			c-0.019-0.06-0.004-0.127,0.04-0.173c0.063-0.066,1.541-1.593,2.643-1.593c0.001,0,0.001,0,0.002,0
			c0.287,0.001,0.527,0.101,0.715,0.297c0.29,0.304,0.211,0.571,0.139,0.704C102.721,386.327,101.187,386.647,100.187,386.647z
			 M100.065,386.3c0.944,0.037,2.445-0.311,2.681-0.745c0.021-0.039,0.072-0.132-0.085-0.297c-0.121-0.127-0.272-0.189-0.463-0.189
			c0,0-0.001,0-0.001,0C101.536,385.069,100.591,385.813,100.065,386.3z"/>
		<path style="fill:#407BFF;" d="M168.388,411.368c-0.878,0-1.784-0.113-2.253-0.206c-0.071-0.015-0.126-0.071-0.138-0.143
			c-0.012-0.071,0.022-0.142,0.085-0.179c0.108-0.063,2.672-1.529,3.898-1.193c0.251,0.068,0.437,0.205,0.552,0.407
			c0.206,0.359,0.122,0.612,0.015,0.76C170.242,411.238,169.331,411.368,168.388,411.368z M166.697,410.903
			c1.366,0.194,3.225,0.183,3.568-0.292c0.044-0.061,0.089-0.168-0.034-0.385c-0.069-0.12-0.18-0.2-0.341-0.243
			C169.138,409.776,167.594,410.443,166.697,410.903z"/>
		<path style="fill:#407BFF;" d="M166.169,411.165c-0.036,0-0.071-0.011-0.102-0.032c-0.05-0.036-0.078-0.097-0.072-0.158
			c0.008-0.084,0.206-2.063,1.141-2.83c0.285-0.234,0.61-0.335,0.965-0.298c0.478,0.048,0.616,0.291,0.648,0.485
			c0.134,0.831-1.622,2.42-2.509,2.818C166.217,411.16,166.193,411.165,166.169,411.165z M167.961,408.188
			c-0.221,0-0.419,0.074-0.605,0.227c-0.614,0.504-0.875,1.688-0.97,2.265c0.905-0.544,2.099-1.792,2.018-2.291
			c-0.006-0.04-0.026-0.163-0.339-0.195C168.031,408.19,167.996,408.188,167.961,408.188z"/>
		<polygon style="fill:#E4897B;" points="158.091,410.991 165.437,410.991 166.169,393.979 158.822,393.979 		"/>
		<polygon style="fill:#E4897B;" points="92.635,381.787 98.779,385.814 112.339,374.359 106.194,370.333 		"/>
		<path style="fill:#263238;" d="M99.794,385.428l-6.384-5.231c-0.232-0.19-0.566-0.194-0.802-0.008l-5.261,4.131
			c-0.546,0.429-0.54,1.262,0.004,1.692c2.26,1.788,3.45,2.544,6.257,4.845c1.727,1.415,6.022,5.73,8.407,7.685
			c2.333,1.911,4.629-0.149,3.828-1.163c-3.594-4.545-5.044-8.437-5.413-10.846C100.363,386.099,100.134,385.707,99.794,385.428z"/>
		<path style="fill:#263238;" d="M165.389,410.141h-8.023c-0.3,0-0.56,0.209-0.626,0.502l-1.451,6.53
			c-0.15,0.677,0.364,1.319,1.057,1.307c2.894-0.049,7.076-0.219,10.713-0.219c4.253,0,7.926,0.232,12.914,0.232
			c3.016,0,3.853-3.049,2.591-3.325c-5.747-1.257-10.439-1.392-15.406-4.454C166.619,410.38,166.023,410.141,165.389,410.141z"/>
		<path style="fill:#263238;" d="M121.661,184.021c-6.372,3.05-9.96,23.097-9.96,23.097l15.571,6.215c0,0,3.504-8.299,5.507-17.154
			C134.876,186.902,128.176,180.903,121.661,184.021z"/>
		<path style="fill:#203048;" d="M129.92,195.33c-3.85,3.9-5.61,11.54-6.38,16.51l3.73,1.49c0,0,3.38-7.99,5.4-16.65
			C132.34,194.56,131.52,193.71,129.92,195.33z"/>
		<path style="fill:#263238;" d="M164.144,183.865c0,0,7.819,8.832,0.435,63.497c-11.839,0-33.532,0-39.293,0
			c-0.271-6.032,3.519-35.456-2.298-63.876c0,0,6.735-1.352,13.154-1.661c5.021-0.242,12.289-0.402,16.703,0.001
			C158.664,182.357,164.144,183.865,164.144,183.865z"/>
		<path style="fill:#203048;" d="M167.73,205.08l-6.62-11.41c-1.28,6.25-1.824,10.115-1.554,16.274
			c0.18,3.92,3.774,18.436,6.984,20.556C167.55,219.83,167.84,211.52,167.73,205.08z"/>
		<path style="fill:#E4897B;" d="M168.647,191.669c0.979,4.862,2.011,9.837,3.074,14.725c1.061,4.899,2.176,9.778,3.466,14.51
			c0.335,1.165,0.644,2.361,1.013,3.488l0.267,0.857l0.133,0.429c0,0-0.036-0.036-0.046-0.052c-0.078-0.087-0.156-0.096-0.096-0.005
			c0.079,0.199,0.707,0.633,1.525,0.945c0.827,0.319,1.839,0.602,2.91,0.816c4.34,0.826,9.451,0.944,14.3,0.93l0.951,5.433
			c-1.343,0.428-2.597,0.743-3.912,1.047c-1.303,0.308-2.619,0.573-3.955,0.775c-2.674,0.413-5.409,0.677-8.329,0.559
			c-1.463-0.061-2.978-0.201-4.601-0.599c-1.615-0.417-3.402-0.983-5.273-2.447c-0.915-0.731-1.821-1.743-2.468-2.974
			c-0.164-0.295-0.307-0.638-0.431-0.927l-0.185-0.473l-0.37-0.947c-0.512-1.267-0.932-2.517-1.39-3.777
			c-1.694-5.027-3.096-10.043-4.342-15.084c-1.226-5.056-2.302-10.067-3.195-15.237L168.647,191.669z"/>
		<path style="fill:#263238;" d="M154.326,189.222c-2.07,6.712,6.324,26.717,6.324,26.717l16.714-4.204
			c0,0-0.642-10.393-4.45-18.643C167.171,180.647,156.811,181.167,154.326,189.222z"/>
		<path style="fill:#E4897B;" d="M195.09,228.32l8.319-0.205l-4.001,8.652c0,0-3.384,0.45-6.165-4.12l-2.933-3.492l3.373-0.677
			C194.147,228.384,194.617,228.331,195.09,228.32z"/>
		<polygon style="fill:#E4897B;" points="208.661,229.723 203.898,236.895 199.408,236.766 203.409,228.114 		"/>
		<g>
			<polygon style="fill:#CE6F64;" points="166.167,393.983 165.791,402.753 158.442,402.753 158.818,393.983 			"/>
			<polygon style="fill:#CE6F64;" points="106.189,370.335 112.336,374.363 105.344,380.266 99.197,376.237 			"/>
		</g>
		<path style="fill:#E4897B;" d="M138.259,157.277c0.441,7.278,0.329,11.56,4.001,15.298c5.524,5.623,14.509,2.298,16.252-4.965
			c1.568-6.537,0.584-17.34-6.536-20.242C144.96,144.509,137.819,149.999,138.259,157.277z"/>
		<path style="fill:#263238;" d="M129.699,156.005c1.81,6.635,6.071,14.279,11.577,14.764c6.844,0.603,9.934-6.467,10.834-13.772
			c4.102-2.809,1.946-5.894,6.062-6.287c5.275-0.503,3.592-10.16-3.363-11.714c0,0,2.328,4.35-2.559,2.155
			s-9.665-3.136-14.938-2.591c0,0,6.233,3.115,0.137,4.505c-6.096,1.39-7.92,5.155-5.114,7.426
			C132.335,150.492,128.508,151.637,129.699,156.005z"/>
		<path style="fill:#E4897B;" d="M147.941,158.491c0.114,1.906,1,3.7,2.065,4.872c1.602,1.764,3.273,0.665,3.556-1.484
			c0.255-1.934-0.271-5.183-2.229-6.156C149.403,154.766,147.81,156.312,147.941,158.491z"/>
		<g>
			<path style="fill:#407BFF;" d="M150.641,247.362c0,0,7.161,51.851,1.52,72.624c-8.936,32.903-43.122,60.67-43.122,60.67
				l-11.589-7.594c0,0,29.108-23.451,32.672-50.988c3.201-24.738-4.835-54.643-4.835-74.712
				C134.439,247.362,150.641,247.362,150.641,247.362z"/>
			<path style="opacity:0.1;" d="M150.641,247.362c0,0,7.161,51.851,1.52,72.624c-8.936,32.903-43.122,60.67-43.122,60.67
				l-11.589-7.594c0,0,29.108-23.451,32.672-50.988c3.201-24.738-4.835-54.643-4.835-74.712
				C134.439,247.362,150.641,247.362,150.641,247.362z"/>
		</g>
		<g>
			<path style="fill:#407BFF;" d="M153.6,277.02c-3.37-3.82-6.27-6.02-6.27-6.02c1.22,16.83,2.22,41.76,1.11,59.47
				c1.49-3.41,2.75-6.92,3.72-10.48C154.91,309.85,154.62,292.32,153.6,277.02z"/>
			<path style="opacity:0.3;" d="M153.6,277.02c-3.37-3.82-6.27-6.02-6.27-6.02c1.22,16.83,2.22,41.76,1.11,59.47
				c1.49-3.41,2.75-6.92,3.72-10.48C154.91,309.85,154.62,292.32,153.6,277.02z"/>
		</g>
		<g>
			<path style="fill:#407BFF;" d="M113.71,378.073c0.048,0.031-4.486,2.955-4.486,2.955l-12.662-8.298l3.947-3.308L113.71,378.073z"
				/>
			<path style="opacity:0.3;" d="M113.71,378.073c0.048,0.031-4.486,2.955-4.486,2.955l-12.662-8.298l3.947-3.308L113.71,378.073z"
				/>
		</g>
		<g>
			<path style="fill:#407BFF;" d="M164.579,247.362c0,0,11.065,46.901,11.845,69.304c0.874,25.125-7.895,84.388-7.895,84.388
				h-12.445c0,0-1.532-59.724-2.086-82.609c-0.604-24.949-15.248-71.083-15.248-71.083H164.579z"/>
			<path style="opacity:0.1;" d="M164.579,247.362c0,0,11.065,46.901,11.845,69.304c0.874,25.125-7.895,84.388-7.895,84.388h-12.445
				c0,0-1.532-59.724-2.086-82.609c-0.604-24.949-15.248-71.083-15.248-71.083H164.579z"/>
		</g>
		<g>
			<path style="fill:#407BFF;" d="M170.924,396.097c0.057,0-0.702,5.167-0.702,5.167h-15.139l-0.409-4.611L170.924,396.097z"/>
			<path style="opacity:0.3;" d="M170.924,396.097c0.057,0-0.702,5.167-0.702,5.167h-15.139l-0.409-4.611L170.924,396.097z"/>
		</g>
	</g>
</g>
<g id="Character_1_">
	<g>
		<path style="fill:#E4897B;" d="M355.95,202.286c0.854,0.8,1.516,1.482,2.223,2.246c0.686,0.748,1.36,1.503,2.014,2.269
			c1.309,1.533,2.524,3.134,3.699,4.761c2.37,3.238,4.445,6.688,6.276,10.259l0.372,0.727c0.176,0.356,0.326,0.726,0.451,1.1
			c0.25,0.751,0.391,1.521,0.436,2.261c0.082,1.487-0.173,2.829-0.545,4.009c-0.756,2.367-1.962,4.219-3.21,5.925
			c-2.606,3.344-5.497,6.049-8.805,8.454l-2.495-2.86c1.179-1.362,2.396-2.833,3.483-4.303c1.112-1.462,2.135-2.973,2.976-4.501
			c0.864-1.501,1.535-3.07,1.818-4.419c0.141-0.672,0.15-1.269,0.063-1.702c-0.041-0.218-0.098-0.397-0.174-0.552
			c-0.038-0.078-0.079-0.151-0.127-0.221l-0.329-0.535c-1.928-3.147-4.017-6.193-6.265-9.115c-1.114-1.468-2.304-2.876-3.495-4.27
			c-0.593-0.699-1.201-1.382-1.814-2.054c-0.604-0.645-1.267-1.36-1.799-1.896L355.95,202.286z"/>
		<path style="fill:#E4897B;" d="M357.362,240.59l-7.469-1.225l3.904,6.545c0,0,4.809-0.167,6.184-2.962L357.362,240.59z"/>
		<polygon style="fill:#E4897B;" points="344.369,242.394 347.934,247.697 353.797,245.911 349.893,239.366 		"/>
		<path style="fill:#407BFF;" d="M357.012,411.282c-0.577,0-1.109-0.1-1.429-0.391c-0.251-0.229-0.35-0.547-0.294-0.943
			c0.042-0.3,0.215-0.437,0.353-0.499c0.872-0.39,3.148,1.075,3.405,1.243c0.059,0.039,0.09,0.109,0.077,0.18
			c-0.013,0.069-0.065,0.125-0.134,0.142C358.461,411.139,357.704,411.282,357.012,411.282z M356.014,409.732
			c-0.088,0-0.164,0.013-0.226,0.04c-0.058,0.026-0.126,0.075-0.147,0.225c-0.039,0.278,0.021,0.484,0.182,0.632
			c0.378,0.346,1.358,0.391,2.665,0.131C357.684,410.273,356.59,409.732,356.014,409.732z"/>
		<path style="fill:#407BFF;" d="M358.949,411.019c-0.03,0-0.06-0.008-0.088-0.023c-0.715-0.405-2.077-2.022-1.908-2.867
			c0.032-0.161,0.153-0.44,0.598-0.494c0.285-0.042,0.534,0.045,0.751,0.236c0.814,0.721,0.825,2.879,0.825,2.971
			c0,0.064-0.034,0.121-0.089,0.153C359.011,411.011,358.98,411.019,358.949,411.019z M357.675,407.98
			c-0.026,0-0.054,0.002-0.081,0.005c-0.227,0.028-0.275,0.128-0.292,0.213c-0.104,0.514,0.746,1.729,1.459,2.298
			c-0.041-0.719-0.209-1.931-0.694-2.36C357.949,408.032,357.82,407.98,357.675,407.98z"/>
		<path style="fill:#407BFF;" d="M322.923,411.283c-0.746,0-1.433-0.116-1.817-0.462c-0.245-0.22-0.353-0.511-0.321-0.864
			c0.02-0.212,0.123-0.375,0.301-0.472c0.927-0.511,3.905,1.021,4.243,1.198c0.066,0.034,0.104,0.107,0.094,0.183
			c-0.011,0.074-0.067,0.134-0.142,0.148C324.645,411.142,323.748,411.283,322.923,411.283z M321.587,409.732
			c-0.138,0-0.25,0.02-0.331,0.065c-0.073,0.04-0.109,0.099-0.118,0.191c-0.022,0.24,0.046,0.426,0.205,0.569
			c0.453,0.408,1.689,0.48,3.348,0.204C323.662,410.269,322.297,409.732,321.587,409.732z"/>
		<path style="fill:#407BFF;" d="M325.246,411.019c-0.024,0-0.05-0.006-0.073-0.016c-0.894-0.404-2.66-2.021-2.521-2.869
			c0.033-0.201,0.175-0.451,0.667-0.501c0.364-0.035,0.694,0.065,0.983,0.307c0.941,0.784,1.114,2.802,1.121,2.887
			c0.005,0.063-0.023,0.124-0.074,0.16C325.317,411.008,325.282,411.019,325.246,411.019z M323.461,407.98
			c-0.035,0-0.07,0.002-0.107,0.006c-0.323,0.032-0.345,0.162-0.351,0.204c-0.083,0.51,1.116,1.781,2.026,2.333
			c-0.087-0.587-0.336-1.797-0.954-2.311C323.888,408.057,323.686,407.98,323.461,407.98z"/>
		<path style="fill:#E4897B;" d="M337.068,179.296c-0.288,4.522-1.072,13.708,2.398,16.246c0,0-0.62,4.63-8.813,5.702
			c-9.009,1.179-4.89-3.909-4.89-3.909c4.763-1.818,4.159-5.449,2.854-8.762L337.068,179.296z"/>
		<path style="fill:#263238;" d="M318.443,171.309c-0.099,0-0.197-0.041-0.268-0.122c-1.042-1.194-2.338-1.025-2.351-1.024
			c-0.217,0.028-0.374-0.108-0.401-0.302c-0.027-0.194,0.108-0.373,0.302-0.401c0.071-0.008,1.692-0.22,2.985,1.26
			c0.129,0.148,0.113,0.372-0.034,0.501C318.609,171.28,318.526,171.309,318.443,171.309z"/>
		<path style="fill:#DE5753;" d="M316.883,175.738c0,0-0.679,2.713-1.636,4.105c0.888,0.635,2.189,0.121,2.189,0.121
			L316.883,175.738z"/>
		<path style="fill:#263238;" d="M317.285,174.638c0.078,0.599-0.176,1.127-0.567,1.178c-0.392,0.051-0.773-0.393-0.851-0.992
			s0.176-1.127,0.567-1.178C316.825,173.594,317.206,174.039,317.285,174.638z"/>
		<path style="fill:#263238;" d="M316.611,173.656l-1.494-0.227C315.117,173.43,316.003,174.457,316.611,173.656z"/>
		<polygon style="fill:#E4897B;" points="333.486,410.841 325.993,410.841 325.492,393.487 332.986,393.487 		"/>
		<polygon style="fill:#E4897B;" points="367.535,410.841 360.041,410.841 357.632,393.487 365.125,393.487 		"/>
		<path style="fill:#263238;" d="M359.576,409.973h8.419c0.306,0,0.555,0.213,0.598,0.512l0.959,6.661
			c0.099,0.691-0.495,1.345-1.201,1.333c-2.935-0.051-4.35-0.223-8.052-0.223c-2.278,0-5.605,0.237-8.751,0.237
			c-3.076,0-3.313-3.11-2.003-3.392c5.873-1.263,6.8-3.005,8.779-4.667C358.68,410.134,359.128,409.973,359.576,409.973z"/>
		<path style="fill:#263238;" d="M325.736,409.973h8.419c0.306,0,0.555,0.213,0.598,0.512l0.959,6.661
			c0.099,0.691-0.495,1.345-1.201,1.333c-2.935-0.051-4.35-0.223-8.052-0.223c-2.278,0-6.989,0.237-10.134,0.237
			c-3.076,0-3.313-3.11-2.003-3.392c5.873-1.263,8.184-3.005,10.162-4.667C324.84,410.134,325.288,409.973,325.736,409.973z"/>
		<g>
			<polygon style="fill:#CE6F64;" points="325.494,393.491 325.75,402.437 333.247,402.437 332.991,393.491 			"/>
			<polygon style="fill:#CE6F64;" points="365.128,393.491 357.631,393.491 358.876,402.437 366.373,402.437 			"/>
		</g>
		<path style="fill:#E4897B;" d="M337.167,169.944c0.511,7.42,0.886,10.549-2.338,14.814c-4.848,6.414-14.074,5.419-16.791-1.698
			c-2.446-6.406-2.871-17.464,3.951-21.336C328.71,157.909,336.656,162.525,337.167,169.944z"/>
		<path style="fill:#263238;" d="M341.487,176.833c4.167,2.321,7.25-3.404,7.25-3.404s-7.458,0.81-6.792-3.63
			c0.884-5.889-3.333-13.05-13.917-12.133c-0.586,0.051-1.152,0.125-1.701,0.215c-2.051-0.857-4.829-0.766-6.58,1.515
			c-2.961,0.25-7.045,3.834-4.303,8.562c0,0,0.239-0.751,0.886-1.468c0.224,2.767,2.653,7.167,5.671,7.456
			c0.651,3.794-1.867,8.185-0.973,12.139c1.292,5.71,10.917,7.04,10.917,7.04c-1.055-2.766,0.565-4.403,0.565-4.403
			c6.542,2.986,10.852,0.069,10.852,0.069c-4.458-1.667-3.111-4.625-3.111-4.625c5.972,2.278,8.486-3.083,8.486-3.083
			C345.557,181.25,342.871,179.472,341.487,176.833z"/>
		<path style="fill:#E4897B;" d="M324.614,175.087c0.049,1.541-0.619,2.961-1.501,3.87c-1.327,1.368-2.947,0.413-3.38-1.34
			c-0.39-1.578-0.169-4.192,1.548-4.905C322.974,172.011,324.558,173.325,324.614,175.087z"/>
		<path style="fill:#263238;" d="M330.839,244.222c0,0,1.905,49.356,6.418,78.343c3.645,23.413,19.81,78.139,19.81,78.139h10.219
			c0,0-8.423-52.853-10.273-76.01c-4.681-58.597,7.463-71.175-3.966-83.379L330.839,244.222z"/>
		<path style="fill:#161F33;" d="M339.38,259.83c0,0-4.62-0.8-7.32,8c1.02,16.67,2.71,38.79,5.2,54.73
			c0.55,3.55,1.39,7.83,2.42,12.52C337.73,306.92,339.38,259.83,339.38,259.83z"/>
		<path style="fill:#263238;" d="M322.869,245.265c0,0-8.423,54.605-7.931,77.458c0.511,23.77,9.221,77.982,9.221,77.982h10.133
			c0,0-1.604-52.823-0.708-76.168c0.977-25.449,11.384-82.164,11.384-82.164L322.869,245.265z"/>
		<g>
			<polygon style="fill:#407BFF;" points="368.767,401.177 355.184,401.177 354.124,396.618 368.673,396.722 			"/>
			<polygon style="opacity:0.2;" points="368.767,401.177 355.184,401.177 354.124,396.618 368.673,396.722 			"/>
		</g>
		<g>
			<path style="fill:#407BFF;" d="M352.501,195.555c3.905,0.372,9.848,11.482,9.848,11.482l-9.87,7.574c0,0-8.172-7.17-7.199-11.199
				C346.293,199.217,348.751,195.197,352.501,195.555z"/>
			<path style="opacity:0.1;" d="M352.501,195.555c3.905,0.372,9.848,11.482,9.848,11.482l-9.87,7.574c0,0-8.172-7.17-7.199-11.199
				C346.293,199.217,348.751,195.197,352.501,195.555z"/>
		</g>
		<g>
			<path style="fill:#407BFF;" d="M349.55,200.33c0,0-1.57-0.45-3.06-0.34c-0.52,1.06-0.92,2.23-1.21,3.42
				c-0.97,4.03,7.2,11.2,7.2,11.2l0.73-0.56L349.55,200.33z"/>
			<path style="opacity:0.3;" d="M349.55,200.33c0,0-1.57-0.45-3.06-0.34c-0.52,1.06-0.92,2.23-1.21,3.42
				c-0.97,4.03,7.2,11.2,7.2,11.2l0.73-0.56L349.55,200.33z"/>
		</g>
		<path style="fill:#E4897B;" d="M319.52,210.997c-2.851,7.216-5.853,14.543-8.242,21.776c-0.154,0.453-0.293,0.901-0.426,1.348
			l-0.34,1.11c-0.091,0.348-0.109,0.612,0.003,1.037c0.223,0.848,1.272,2.078,2.59,3.098c2.67,2.099,6.252,3.778,9.686,5.19
			l-0.896,3.688c-4.176-0.642-8.119-1.726-12.087-3.946c-1.919-1.176-4.015-2.638-5.383-5.455c-0.668-1.389-0.952-3.165-0.698-4.765
			c0.027-0.201,0.068-0.393,0.106-0.59l0.093-0.414l0.177-0.76c0.116-0.509,0.237-1.014,0.369-1.507
			c1.027-3.979,2.278-7.792,3.623-11.57c1.334-3.786,2.765-7.486,4.355-11.195L319.52,210.997z"/>
		<g>
			<path style="fill:#407BFF;" d="M313.451,200.883c0,0-3.377,1.71,9.418,44.382c11.975-1.567,24.351-3.186,30.178-3.948
				c-2.113-12.216-3.118-19.788-0.546-45.762c0,0-6.503-0.548-13.036-0.012c-5.11,0.42-9.292,0.802-13.703,1.793
				C319.947,198.643,313.451,200.883,313.451,200.883z"/>
			<path style="opacity:0.1;" d="M313.451,200.883c0,0-3.377,1.71,9.418,44.382c11.975-1.567,24.351-3.186,30.178-3.948
				c-2.113-12.216-3.118-19.788-0.546-45.762c0,0-6.503-0.548-13.036-0.012c-5.11,0.42-9.292,0.802-13.703,1.793
				C319.947,198.643,313.451,200.883,313.451,200.883z"/>
		</g>
		<g>
			<path style="fill:#407BFF;" d="M353.267,239.486l1.714,2.523c0.133,0.196-0.087,0.442-0.436,0.488l-31.648,4.141
				c-0.272,0.036-0.515-0.068-0.554-0.237l-0.626-2.666c-0.043-0.185,0.172-0.374,0.469-0.413l30.56-3.998
				C352.971,239.294,353.182,239.36,353.267,239.486z"/>
			<path style="opacity:0.2;" d="M353.267,239.486l1.714,2.523c0.133,0.196-0.087,0.442-0.436,0.488l-31.648,4.141
				c-0.272,0.036-0.515-0.068-0.554-0.237l-0.626-2.666c-0.043-0.185,0.172-0.374,0.469-0.413l30.56-3.998
				C352.971,239.294,353.182,239.36,353.267,239.486z"/>
		</g>
		<path style="fill:#263238;" d="M349.61,243.44l0.819-0.107c0.163-0.021,0.276-0.122,0.251-0.223l-0.843-3.459
			c-0.025-0.101-0.178-0.167-0.341-0.145l-0.819,0.107c-0.163,0.021-0.276,0.122-0.251,0.223l0.843,3.459
			C349.293,243.396,349.447,243.462,349.61,243.44z"/>
		<path style="fill:#263238;" d="M329.771,246.036l0.819-0.107c0.163-0.021,0.276-0.122,0.251-0.223l-0.843-3.459
			c-0.025-0.101-0.178-0.167-0.341-0.145l-0.819,0.107c-0.163,0.021-0.276,0.122-0.251,0.223l0.843,3.459
			C329.455,245.992,329.609,246.057,329.771,246.036z"/>
		<g>
			<path style="fill:#407BFF;" d="M314.86,215.36c0.83,3.86,2.03,8.75,3.71,14.94l0.37-15.69L314.86,215.36z"/>
			<path style="opacity:0.3;" d="M314.86,215.36c0.83,3.86,2.03,8.75,3.71,14.94l0.37-15.69L314.86,215.36z"/>
		</g>
		<g>
			<path style="fill:#407BFF;" d="M313.451,200.883c-3.752,1.506-6.973,14.339-6.973,14.339l12.897,6.278
				c0,0,6.24-15.691,3.444-18.75C319.906,199.564,317.767,199.15,313.451,200.883z"/>
			<path style="opacity:0.1;" d="M313.451,200.883c-3.752,1.506-6.973,14.339-6.973,14.339l12.897,6.278
				c0,0,6.24-15.691,3.444-18.75C319.906,199.564,317.767,199.15,313.451,200.883z"/>
		</g>
		<g>
			<polygon style="fill:#407BFF;" points="336.017,401.177 322.434,401.177 321.374,396.618 336.499,396.722 			"/>
			<polygon style="opacity:0.2;" points="336.017,401.177 322.434,401.177 321.374,396.618 336.499,396.722 			"/>
		</g>
		<path style="fill:#E4897B;" d="M323.001,243.278l-1.089-0.448c-1.175-0.484-2.429,0.5-2.239,1.757l0.789,5.212
			c0.168,1.109,1.308,1.809,2.36,1.421c0.36-0.133,0.735-0.328,1.096-0.61c0.749-0.586,1.124-1.534,1.079-2.484l-0.102-2.16
			C324.839,244.779,324.1,243.731,323.001,243.278z"/>
	</g>
</g>
</svg>
